<mxfile host="65bd71144e">
    <diagram id="CL30i-IYvJVQ1Kg6kNjX" name="Page-1">
        <mxGraphModel dx="978" dy="588" grid="1" gridSize="10" guides="1" tooltips="1" connect="1" arrows="1" fold="1" page="1" pageScale="1" pageWidth="850" pageHeight="1100" math="0" shadow="0">
            <root>
                <mxCell id="0"/>
                <mxCell id="1" parent="0"/>
                <mxCell id="2" value="Nanite Cluster Mesh" style="rounded=0;whiteSpace=wrap;html=1;" parent="1" vertex="1">
                    <mxGeometry x="90" y="10" width="120" height="60" as="geometry"/>
                </mxCell>
                <mxCell id="3" value="Mesh Split to Cluster, k tri Per Cluster" style="rounded=0;whiteSpace=wrap;html=1;" vertex="1" parent="1">
                    <mxGeometry x="220" y="50" width="210" height="40" as="geometry"/>
                </mxCell>
                <mxCell id="9" value="N Cluster To 1 ClusterGroup" style="rounded=0;whiteSpace=wrap;html=1;" vertex="1" parent="1">
                    <mxGeometry x="220" y="100" width="170" height="40" as="geometry"/>
                </mxCell>
                <mxCell id="10" value="QEM ClusterGroup" style="rounded=0;whiteSpace=wrap;html=1;" vertex="1" parent="1">
                    <mxGeometry x="220" y="150" width="150" height="40" as="geometry"/>
                </mxCell>
                <mxCell id="11" value="Split ClusterGroup to N/2 Cluster" style="rounded=0;whiteSpace=wrap;html=1;" vertex="1" parent="1">
                    <mxGeometry x="220" y="200" width="210" height="40" as="geometry"/>
                </mxCell>
                <mxCell id="13" value="" style="shape=image;verticalLabelPosition=bottom;labelBackgroundColor=default;verticalAlign=top;aspect=fixed;imageAspect=0;image=data:image/png,iVBORw0KGgoAAAANSUhEUgAAAggAAADsCAYAAAARtl7eAAAAAXNSR0IArs4c6QAAIABJREFUeF7snQecHlX1/p8tKZseEkICARJC7x1BI016kaIIoigioiBFRUAEVIoUQUCKAuoPEERApSgq0os06b2ThIQ00jebbP//v7M58TKZ/s777rvJ3I8xS3bmzp07tzznOc85t6azs7NTVVDa2toyt6Kmpkb8qa2tDa2jo6ND9qr+V66rq/Pub29vX3pNUEVcQ+E59nNra6v3M3+SdqXdG9fmzB1S3Fj0QIV7gLHP/ImaBzZP7G+ayD2UpHMn6LWYj2Fzn3nPM+z3Yc+JqqPCXVk8ruiBpT3AeHX3rrRdY3sNe1xcsTnsXldTLQCBTuBPKcU2XOsUt64kACGog4LaY4DCFjjuSwMQDGAEtbOU9y/uLXogSQ+4m6T97I7FLOPSFrIkmz31uwtWKXPfbasL3N1+AMTzuygQ4m9Tkn4sril6oJw9ELVnpXmuu19F3VfVACHp5pykY4I6xBahoI08aMOPeo4fiIQxDwYcrK5iEUry9YprytEDLnvGz2FsGs92AWxSsJAEINh8CJoHthhmZRKs7iAmIAkAScJCluO7FHUWPeDvAZuf7jzlmjRGqF2fhqXOHSCYxR9F7af5/EYHJl2UguoOWyjCAIJ/s3ep0ihryAUVUQtQkFsiTZ8U1xY9UGoP+DdfP3ANqj+LGyyJuyCK8iyVTrVFMYhJSOI+TLOYlvpNivuLHgjbv2xfzQqWXYM0jFWLerb73NQuBrvZ7w5I05CwoZFmgYhDU36LIMxCCXJL2EIXBRBcKyio3S4wsIWrmBJFD1SyB8LGZdzC4wfoSfyXvFcaFqC+vj6wK8xqKsXdGKR18FtHtn4EXVvJb1Q8q+gB64Ek+5+N2yQgP62uJnC9SKNBiHuBtA0KGhpJ6ECXbonrKAMAYcAmiFqMc3e4i4stnm67C41BMem7uwfiLOYk7UtLuycFCElcbe58ijMGohgQ13Dx90ke61WSfiyuKXogrgfi9taw+12mz0A6f2fZg4LchIkYBLuRSRsn9qFxYdZBXCeZxe5a8FH30BZTTkctErSfa4OskjDKk6iKOPDhf1fqt0U1ybsW1xQ9kHcP2Fx1LY2szwhi16LqyhMg2GKXlUlwQYUBAXcBTMqKZO274r6iB9L0QFKA4BqnQay9q1sIc/3bNf7fpwYIpdB9SZWTWVkE2maT3O0Uf30uXRpErVqH+0FNHItg4KGU90wzgIprix6I6wF3zNq4j3MnxAHwNPqiNOxf0g26VCW3zdOCLYgbPcXvu6sHgjbmKMYg6dzx1+EHIf69K7WLIStNaZtu1knpNjSMXnQ39qSWSxh44HlBrIcrbLR7bcE1ViIP7UV3DcziuctPD7hzJgnzxZuHgYisYzvpepHExWAMggtwsoCdQmOw/Izx5fVNks6bUvZTF4SEsRCpAUJS2iNPK8TqSttpWdsa5mKgHdSJq8HvVnEFiH5B1/I6iIv3qu4eSGq921sEMQN+ejKKogwa90nnLG2IckP6mcssGgRre+Hyq+5xu6K3zli/OMYvCzjwG9pBjIJbb2qAYJukS/Nl+aBpfZn2XFsowiwH/+aeFSRELVh+PYRrkWTpi/Le06n2RY1qnjVFrfNmqmX+DFCO6vr0U69BK6v3Squq95ARqqnrVd5mFLVXtAfSgAObiy6D4DbW5lzYxmqagKDfp2lHEEAIo1qjAEJNZ6vU3ih1NKmms6VLN1Rbr5r6/qqpHyTV9oUrqej3KB4W0gMdTVLrx1LrHKmj+X8X1fWT6gdLvUZItX1WqO6LC5F3XWRJjdEk+6A7p8zVkBgg2CLhWhBpJn/QF84CEpI801+v3/pIOtqiEBosgvl9kn6kpM/N5brOTjW+/4JmPXO3Gt97Xq2Ns9XRssj7420EdfWq7dWg2r791Hf4mhqy2c4ats3+qh8wNJfHF5V0bw/EpSm3MZsV3LpA3XVf+N1rSear9ZQLEPz1x/ZmZ7tq2marpnmiatpmSO0LVMPm09FCsKVU00uqa5DqBkh1g6Q+a0h9V5dq+8VWXVyQcw90tknNk6QFz0uLJ3SBuc4WiX/vWp1YoKSaPhJAoWE9aeDmUp/RaPFzbkz1VZdk7iZ1Y6eeR0u6wy/idQ3ywCgGm+j+TTOPREZpqJIoJGQLVRjdn2axMmsqq/ijO4fdwomvaOItP1Pj+8+ro7lJHe2tHmsQVmpq61Tbq6/q+g3UqD2O0cjPfUN1DQO78xWKZ5fQA0ZRRlWRBZxbff555FKhQetDkqgD2tyr1/9YrDRCxJqWKapd/JYHDtQ6U2qdtcQa9adpZ+Opl+oHSr1W7rJO+28kNay7hFUoodOLW5P1QMsMafY90sJXur7RUlAQcTvgrrZB6r+htNJeUu+RyZ7VQ6+KSwOeRK9j+2TSKEO3q1wtX5BxHQoQXKrRRTAuSEjqGzREYoyE6x+M+65xC6C1IQh4uOLFOB8P7SglPDPuPXL9PQfjLG7UtPt/p8l3XqL2xQuzVV9Tq4HjttSYr5yrAeO2EuChKD2rB5JkL0wDyu3tXbrfH77rsgguqM6qQYib4x6A71jggYLa+Y9LbbMlNh/cC0lLXX+pz2pS37WlwZ/qAgyF6yFp76W7DiAw/2lp5q2fdCWkq0WqX0kafoA0cAuppnfau6v++iTjPm7uBtVh+20StptreQbzODFAsIe6VrofJFhlWb9CGqsmCRsQhrSSJlxJgtSyvmuu93V2aPH0Cfrwzos16+k71dGyuOTq+66yllY/8Idaadv9PL1CUXpGDyT1NaZhxvx1xhkB7gKWBCD4dUP0dPRC2enR0nWNT6lm0RvS4klSR5frLHWByu41XGoYJw3aQeq7Vhe9XZT8eqB9njTrn9Lch/mypddb27uLSRi8owTIW45K3PxNukcm2R/Dus0AghntrmHgAfOgTIp+gGCV+xWP/srSfjsDHXFIJ64jvRdZctxzUF3+cEXXx2L38neahTTtu+ZyfWenFs+YoA//+gvNevoOdbQ6Qp8SH9B3xJoafcDJGr7DF1Tba8USCpXYdd12e5KFIc4Csca7NKVpFfzzxP+irvXB75K0x+abO9eiAEJN+1zVNv5XNY3PSi3TktHUkV+kRqofIjWMlQbvJPVbt2AS8hrBMDuz/ynNf2qJHiSnimtqpSG7SMP2Wa50JHHh+UkBQpL9MQ4g2LOWcSlGAQR38fD7+u2/ky4KYQ20xSguIUuS50R1qDEelnnRBRJJRSA5DffM1bQtnKdJt56tGY/+MVdwYA3qs/KaWuvrF2no5rtlbmNxY+V6IMmciEvkVeriYswbfydpTxBACL2vo0m1C19QbePTUvOH+W46qOb7rScN2VXqO6ZyH215fVL7QmnO/V3MAYLR3EutNHxfaegeXdqS5aAkAQi2p8W9btTcszD9IMBvID81QHCFQ/7G+Tf1pAtD2EsmiVlO+owoV4HrY3E7Po7BiPs4lfr9tPt/r4m3/NTTH5Sr9B+ziTY85Xb1GoyPtijV3ANxlH4S9sDmlasrSPrOdo+rgk6SJt0/R4P9qG2qXfyO6uY/KC16X+oo3ZX2yfeqkXoNkQZsKQ3dvYtVKEq2HujskBpfkGbeLrXNyVZHkrsAdSMOkwZskeTqqr8mCThP4/r2R0S4DH3YWpEZIERNdFeb4KY7Nus8jpp0v5xblwGPsA07KUhIYjWZJVP1o2hJA1vmTtfLZ+ysljnTytvkmhqN3PlrWuuoX5b3OUXtJfdAXIhUEoAQ7f8Pb6KrTcgCEFzWzt8Gbx1on6/a2X+Xml6V2uaW3FfBFdR0hT8O/ow0aLwElV2U9D1AJMmMm6WFr6W/N9UdNVK/9aWRX5Pql48Q7SiQb3tj3H5mXWgBBHa9u4+GrRWuBiGIBQw9rClu8bFG+RGO3ZfFIvG7Mfxjx11I4urvMREJCSfIB9efoqn3/Tbh1aVdVlPfW5ud+6D6rb5haRUVd5e1B+LmaFLrIy4SwhaRMOBvz0kKNvyuQNeS6lrcJC14Tprz7y5RYh5it7AvQVjdoO26XA19Vi3r91o+K++QFjwrTf19eb+TdR65LYbtLw3ZsWLd6WfT00ThxTUybg5zfxKgb88J2xfDnuPfcxNpEHhYkoZzXRBdGOWeiOswa3AYmxBHq1I/neTGWcc9s9p/T1bE57+/tdoXL6hMU2tqNWq3ozT2iAv4wJV5ZvGU1D0QN0eTAoSwjd3moM2pcgIEW0u8TiBMbvrNUtMrUlu5x3xNV1KeobtKgz5VCBbTjkLyG0y9Vlr4ato7s18/cGtpxKFSXXnzt4S5AKK0bmlfKsmpwaU+Lwnzbgb1MmxekEiRl0yyEUehm6T3+zvUpS6DOsY+mi1aQR/Er5FI+9Gq7foZj9ys9357kjo72ivWNNiDjX98t+oHrlSxZxYPStcDcXMszcLiF0y5/sskYiqLo06iQYi1iponSzNvk5re6cqMWO5C+BwWKVEN+LmLkrwHWmdIE36WQ3RJ8kd6+SxWPnRJBEqK+1JcGpS8y/ampMA7yePcvEJR1yeN+PPXEQcOjB00qUDZGQRroAkCzepIo0ugDhco+H0wUQujyzz0FPFh3EB656pvaeaTf4nMkBhXR9rf9x46Smsfc6WGbLJz2luL6309YHPBxnVe4zIOINjzkobvmobINnB7DXuOn74MEikmZQ8j/arzHpPmPCi1fFSZsUT+//6bSCvt0ZWWuSjJe2D+E9K0G5Jfn8eVfK+VvyQN3qEsjI9Z0e48ddk0m1d5vAp1xDGB7rrhb0dUG1xgH+WSd+eiP29QLhqEqDDBICSWtGODhFDcG0WJ9pSQxaR9QCKkV362pxZOeDnpLblcV99vsFY/+DSN2vOYXOpbEStxQbIBZFt0km7aUf2WBCBwf1KRU9Ai4tKsYYuMK1IMAwg2lxNZQjP/LC14RmqbV5lhQ9hc3zWlYftJ/TaozDOXl6fMuGVJUqQKv9CwfbsAXRkyLPo3ybA9xT+ns/ZAnJXv1hs3f1yD3DVMwtrm1zfY/F36nDAXQxJUY8gmblO2RYaHW0xmXGe64MBFUCYQcamZNFRq3HOr7fcts6fotfMO0KJp71W0abW9GzRqj29pzUN/UtHnLi8P8/sv/axBHgAhqygwTR9HLV5GT9r8X8Z/WVPjgXlK3ML2iTZN/a208OXS0vSmeUkOBeq9Slda3wGbp7pzhb948qVS05uV74YhO3cBuhKyK9pm6LLOrgvbHbf+F7R5kZe7ISnYt73QwLpfJ0S73BLFHIS58O0Z3t+VAAjW4DSdEDTi7GVNUEF9eSy0lR/dyZ+4aMpbeuPiw7wMipUsNfW9tMpOX9VaR15cyccuF89yN0rXb+m3ovN4WZtTfkDtXyTYoNPOlTCRltXt91+61KwLiOKSoC3TD1Ov6RK9eaczVqiQgnn4/tKArZabRDwV6bkPL5IWVdZ48d4LQenwgzJrRhirZgTbJm9zyHQ0YZu/n1VjXqUe476Pk4ZFiPquUeuAe19SozoUICTdzJM+iMa5C0haTYKLauIYi4pMjAo9ZNHkN/XGJQCEiRV6YtdjCoCQvbs5oc02yDTzI+sTk8xV/2Ye9yzXQoqaq677wl04S7KsCoAQ93mq5/fdBhC2k4YfnBkg0IHuvAnK5RE1d/1sWR5h9VlBgrEISVwKNnCShk5WBCC4vlgDCllGeCqaMssDqvCe5hkT9doFB2vx9Pcr2jqOhB6521Eac/g5FX1uT3pYkA+SRYeJbpM2Csx2hw8zSsTrztMkAN6/yNj9aYRUgd+7cDH0nGkw+TKp6Y3Kt9c7m2Hfkl0MrjDXGDaXQYjSH7iJAZPqfOI6Ki1IcF0N7vwLeo7LZiZlE2va29s7gyZ0EqvErPqoTvSDg7gOst+bBWaWT8mLTtIHV9l1Hc2L9MpP99DCSRWMM+bo636DNPqgU7TqXsdWWY9UR3PMWmZCuxSjS1uaBeJvsWtpJ0XyUW/tt2bCrnXpx6D55Ppkw+pwQU1ei+Iyz/JEik9LbfMr87E50bHPEpFi/yI5WKpO7xaRYk0XOPBEir1im+sHu/bfQRsqY9rNTRDFhPkFuUk33bgGxyUui7s/6vdpmb2a1tZWDyD4N/lSAUJc7HTcS0ZZOnH3Lm+/f+tXX9esZ/5W4TDHkRr3zcs0dPPdl7fuzOV9/EjfNkt3codt/n6NQh4LSxLLwwXd1gl+FsMskqBOcq/NA9iEfoh5jywJcyxzWnFrAEcKE+bIQUBEMxQleQ/Mf1Kadn3y6/O4srZBGnFI15HdIcXGqivac4FC2DhnLvo3/qCxbiDffXwe89idl0lDhpN0qctoJrnervEAAv8RFO7gV0QGVewHF651lKohTsY+FxykqWN5vXbafb/VBzf+qKKJkhpWW1cb/ehO9R46cnnt1pLei3GOpWFWubEIaQFC0NzL2rCkoN6tPwoQuIuVX3RYqigr8h0XfyB9/NcliZK6oiDKWmpJlDReGkKipOUjx39Z+8utvPVjacLZUmd+R8/Htp3Ml2RSbFhnmUvNvccvbP+yMe6O9SAXmo1x5rJ/LrlsoFsvzymXzsgYDnueywBGtT+IKcw6X5cCBF40LGFC1AfzI5OsAMEWyhXVlRDVx80fT9YLP9xOHS2LYudOLhfU1GiVHb+icd+8tDjAJqJD3UXEFgl/6FTYxPRb/HmInEqZe1Hjxtx89nfWxSbx2Oxs6Uq1TCRDe/lOLu1qT43Ue9UlqZa3L8Z74o+05MJuSbW8rTTiSxLnMiwp7tj3b+ZhLJkfMNjGamy6O5fdOlwXhRnWLoBO24Vx17vvZnMw6B4DFDY/7e9S2rYUIARt9EnSpubBIGSlP+I6dvn5fafe+933Nf3BymQsq6mr1yY/+7cGjC1iwv20pEstuhPPZb1ckVMSHULe4z8Lk5BkrpTVrfCJBnRK85+R5twvNXNYUxkLSZLI7c9hTX2LLIrpe5qjnl+Upl4ncexzuUvdIGn457tO4FwSGWcbuxvya8auqwny4OASd7rbzCB3gZtvxwUE7n3mzy9lA87SXUHAxcBOnm4Or7/MxeDSK/wi6SJTKkAom9ApS89X8T0tc6bqhVN3UPvCcmeXq9HwHQ7WusddW8W9Uf6mWTRCVGIv16cfRE/apA1S+/sFgXlPbDeaIm1v+enLSlhJy7SRI549N8MbZRQrclDTatKg7SVU8cVxz2mHStf13nHPtyw5sKmcLiGOe95AGvWNpQc1ublw3JTglvfDdQXS1LD9xs++uXPWT/WvSNF0ywAEl15JokEI6vQwcGELZt4WU7ZR3fPu+ugfV2nS7eeJ9MvlKg0jx2nDH92hPsNHl+sRVVuvjXcDBUGWhTXe9fOZZeLSf7ao2PUuLe/Oq3L5L826KlXoVDnWwDcsONFx4evS3PulxRPKk1WRg5nInDh0N6nXylU7Lqu+YTAHC1+SZtwqtc0pX3Prh0irHC7139R7hrv546Ljv10NEP/G/HLdeWb1BzXSv28VxmsAg5AHQIg6e9qlYss3kpbPmtsWzPLEih8/fZc621tzf0kEiWO+cp6Gf+rA3Ouu9gqDkqYEAV13/BrgdcEAP7OwuFaH3xXh+jOj8iTk1WdBQMfPEhjIsb+rQguE/mD+09KCp6Tmj/I9MZCjghvW7mIO+q2bV1evuPW0L5TmPijNfUji57wLrqBh+0gr7eXpRsIs/qDQQwMOrsYgSEfjvy4KTOT9etVa3ydEijTSLAYXjUU1PsgCcgGCLY4FMMhhCHR2qGnym5r4p7M19+UH1dnRlkOlXVX0GjRMq+13kkZ+7hviHIYVobiiHr/g0DZ5V4cTZu37Fyv6ziyaIMVzd27Cfk2FCwz8P1fFGIC+5sTAxpe7TneEWSip1HTR0w1jpcHjpf4bseqVVGNx85IegD2Yc5807/F8GR9yHaARGba3xEmOSyIUgpg4+53NbYsucsPu+V2vXsH5E1wGogAIDoNggzwLQPALP1yAsCL5ayqxUHS2t6npw9c1+c6LNfuFf6uzrfR89X2GraZV9zleK4//kjjFcUUpRj2a/9+1PmweBEUqBImS/MlN/CmI/X1aaWFTz/2mnVLrnC4WYeFrUvOH2TcfEiIRxth3jDTo013MAZZpUfLrAU7gnHtfVx6LzvbS6yXnAawBYK6un1ef33j1MwNBOUpc4MDPUa4z5nIeEQClv3z317AMg2CoqRQGgVz03SJs6v7+rEwLOjvUOu9jTb77Us14+A9qb27K9tyaWvVffQOt/oUfacgmu6i2d99s9fTAu1yLwsZ8WOhhEIvgf+UwFqEHdk11NrljsdT4Qteflqldwrg0G1Bdg9R7pNR3LWngp7rEiQCGouTfA3yrptekGX8qQWBK+OlIadj+Uv+NJZJZLSl+0G6gwWX4glyGrgFgrsACqEd//rIAhPxHXFFjWA/Mf+spfXDDaWqa/HpXIqUlx+va9WiKaz5xc41qamtU27ufVh5/qNY45AwvrfKKVtwFhMXCL2gK+jfrozDxEguQgQm7pliAch5ZAIN5j3W5G1qmd4niOtDjMNI7veG/tM+JSqjtJ/UaIfVZRWpYTxqwmYRVWpTy9wAakpl/7QJ1HeRw+WSEg2l4PtmQGu/7dA7cTp2IR+uHLj3XxICAG0ZsSY0sQZIZpjYXbSz4XX7uXC5/R/TcJ4RqEHilMLGh+7pFREIVfPzOTs1743HNeOSPWjTlTbUumK2O5oWa9vE8fTCnRVusPlB9+w9UXcMA9VlptAatv713EFOvgcOqoPGVb4LLHtjT3YXFzVwWpEWICpVi8XL1NgVAKMP3hTlomSYteldqmyW1L/As1SmTJ+u5lydo803GaNSo1dWrYZhUP0CqH9GlNXAS65ShVUWVgT3Q2QXkFjwjNb2r9uaPNXfOx3r7g5ma/vFi7bT9WA0ZPFCq7SsRpdB3LbUP2M6LKnHFvFa1mynRdYdbVlOu8x+6ZP/mRjSYWyKPBGXL84cvGSB0WxjU8vxVSni39kUL1DTlLU155Umdft4lmlYzTF/fYXV9/rAjNXjc5uozbLRqaldcatXvCrCFwtXRBOUoMPeDbfhh0Qe2gBXAoIRBnObWzlbP3fDRpDd04S8u132PvqGtNhujvffYSeN3OUCrrr6ualfg8Z6mK8t5bXNzsyZOnKjnnrpXT/3n33rpzTlauGC2zjj5cO2//wGq6TtaqofJ7ApL9Itp3flkzIM7B8NcCi7Yt+sLjUHyL70MQHCto6BoBJcW8osTkz+2uLKcPcBkvPbaa/X73/9eZ599tp5//nntuOOO+uxnP7tUfFPO53dn3UFWh9se2+iD6E2//saucS0Sd6HKO7lRd/ZbT3721KlTdfnlly+NeR8yZIgefvhhbbXVVt6fz33ucxo8eMUR31bTt1y4cKFefvllPfvss96fCRMmaJ999tGIESP06KOPavPNN9ehhx6q4cOHe822HCSuG4F56A9L9Ifh+kMU3cPT/O6HYNdGNfVa9bTlEwDBH8blBwj2ofwfp3pep2gJk+Huu+/We++9p3/+85+688479c4773g/77vvvtp0064kI8trSZIe3A2BYiy797jRC0F+Tfu3QuRUHSNo9uzZuuyyy7xxTejaokWLtOuuu+rvf/+77r33Xn3mM5/xLNfdd99d48ePV9++K44Qtzu/EMDg8ccf12OPPea5ql944QVtueWW2muvvbTtttvq0ksv1Q477KBXX31V6623nmfAuPuPn0VwXQFhG3wQi8C1PL8QzWcbDcsABNcq8qeurERSl2yvUdxlPfDcc8/p3//+tz796U/r+uuv91gEokruv/9+vfnmmzrssMM0cuTye0KjnyEwF4JLWdpCZFaJG73g1yK4LgX62HU/FPOhe+ddU1OTfvnLX2rttdfWwQcfrF//+tfaZptttP3222vBggW644479N///lff+MY3vI0K6/XrX/+6Ntpoo6V+6u59g+Xv6bNmzfKMkX/84x8eY8nawzc46KCDvO+y0korqaWlRccdd5yuuuqqpd+F7zd0aNdJmjY/g8KOo3osLCES9QQlRlr+ej//N1oKEMwicjuSj+tfTPNvQlFjXj0wc+ZM/d///Z9H24GaP/roI33zm9/0qmdSXnfdderfv7++9KUvqaGh5yu5wywJ3tVYLrvGgIK7ALnuAhvrrhXjZ9BMsGh15PXdinrS9wDf+De/+Y169+6tr3zlKxowYIC+//3v64c//KFGjRrlVcg3hUm4+eabPZfbpEmTdMUVV2j99dfXUUcd5W1WRSm9B5hjM2bM0B//+Ec98sgjOvzwwz1wcOWVV+rjjz/Wj3/8Y62yyipLj0aHTYDdOfPMMz3G56KLLtLnP/95bbzxxkuvsX3I2D5amURQ6EYvFKmSS/+2SwFCkNiwQF6ld3ClakB38Je//EUg+GOOOUbnn3++Z1Ux6axgcZ111lnae++9tdNOO/VIVB0kMrQN20CBe1CRq5OxxSZIOxNFT7qROoX4sFIjOvw5gIO77rrLYwRgB4YN64rGwZf9pz/9aZkb77nnHs/Vdt555wl9wp///Gfvv2ETYNoAF4WeJN13ZW9gc58yZYrn0nz66af15S9/WTvvvLPeeOMNr6+POOIIHXLIIcskNjrnnHO0xx57eC4GCkwPxg1AzzIcGjvnn7Nx889Yh+J7pvueYVfXtLS0dBb+mXw6s7tqYRIh+HnooYd07LHHelTdiSeeqAsuuECDBn0yxwFW1C9+8QsdffTRPUqPYAuFqZLD+to9S8TcCkksCfNV+sGAq4KOW5y66/uvSM+F1XnwwQeFK40NZfXVV/den+/Ef2PF+gu/g/ZGrMuGtc466wgfOdoFXBFsVrgdEM4VVHT0aAKcIQr94IMPPPEhf+hT9B382wMPPOCBhpNPPnmp8NCNAILVOfDAAz2A1qdPV9pkDBdYBhigVVdd1QMUfjeD6d8Kt15lZ7vHIBShipXt9LyfxsSEbv3qV7/qMQYs21vrAAAgAElEQVTvv/++Z0mddNJJ6tevKz2pW1hccUWccMIJWnfdnnFQjT+VsetCMPBgi7urLfBHIkT1vZsfwY1oKIBB3iM2e31EJwAQ0NJssMEGSyuCyv7JT37i+bWDChsbABolPRsUbgbGCQJeLFhcbwCHrbfe2gPYxTf/ZC+yib/11lseO4AwdPHixZ7wc5NNNvGsfwSJ/J71h6gR14XpAgTu5xuhF3ELLMS7777rrVkGyt2wRLs2yV5VgPrs88t/Z017e7sHEIrSM3tg/vz5Ov300z0f3m677ea9BJMNlwP/ho82qLBYct2PfvQjz3Kq5hIkPnIjacztwDu4rIH770lZhCg3RDX30YrQtieeeMJzD0Bdo7Nxy5NPPqn//Oc/nuUaVtjUqINr99tvP29zYxwxV1588UXvD4zCpz71Ke9PEp/38t7vrC+4DzAq0GzgoiEaYezYsV7fwcrAzqD7wGUAyHJ1PPzsAgSiF7bYYgsv0sQtjY2N+u53v+uFZcMiUNyIIpvb/kg7f/+7LkgD+cv7Nyrn+9V0uvLucj6pqDv3HoBuRWuwxhprePSq+d0uvvhiL2wIayjKErr99tv1+uuv65RTTqla0aJ/wkdRjP6T2LjWDWFMChIK6zH3oVpyhVDZV199tcd6bbjhhsvUByPG5gU7EFVMVQ/Ddvzxx3sbmpU5c+bo7bff1lNPPeVZs7jpxo0bt8KxCcw5tExEIhCBgE4DVw6gACDA/Jg7d67HWgK6YAxw0QwcONDrSttS3A3aND6sU3yrIGYT9wQMEUyQCxD4OSjSKOg7u+sFP1sK9ZIH4ApaQQEQevCHv+mmmzR58mR973vfW+rPwxr61a9+5VlI0KhRBdSOwhuWAausGoU9xh74F4ywxcGf6th1GwAYkrxjWHREDx4qPbrp5DEACIeBA16O6IUjjzwyEDz4X54x8sorr3h14vt2c4Pw7efNm6fp06frkksu8TbG73znO0v96T26I2Maz7vz3rfddpvHGAC2YGpgGG1Dp++eeeYZz0WA9gAjBJGo3+XnMnwGGsjNQiQVGqggEA54Qzj605/+1AMjrjvBNv4kGoSgo9uX5+9WzncrAEI5e7eMdUOH3nDDDZ57YeWVV176JPyA+Gj3339/rbbaarEtQHBEvgQyzuGi6A7r2SwONyTRGu4ChCSUoYUmuguJyyzEWRQuHZoETMR2cHFBST0wbdo0/exnP/MU8iQ9ChufROYQ2WAq+CQPxQrec889vU0Ld4O/MJagz3/72996+h4yAC4P4cH+92SO0c+EgmLBA8RIqubvS9wN9MVrr72mM844Q6NHj/a+h5+Zc12CbiTcH/7wB4/loR+D5iHX4gJi/QK4ZZ1/fpdjEt1CkvGyIl5TAIQe+NWZzNCtTDSykrmLJgsaflR+h/AqSYFGJLkSYZFkNasUSPBnSzNLw1Us82/udXFuAjd3gS0M9m9uhEIUA2E6BBaxQp+TZATlfw3fAPEbib4Q0gJ4ozQBRCIQW5+2kCsEShv2AWs4SLNDOwARRD4wr6DTiQ6q1DxJ+05JrsdaR2xIqChJ1NASwEQCwvyFcMaXXnpJf/3rX72kVAhEAUp8I+Zj0BxxqX6b17A8iBAt8sRlGWyOw2ryPXD/8Cx/MXYgbtN3gb65GpL0S3HNJ3ugAAg9bESA4tEOQPkdcMABn7BomAigdBgFUpqmKSi5oQC/9rWvfYKRSFNHmmstoQkT3aX0XUmMTWzXIohbGIISHrnJU+Lud69Nwlikeefi2uQ9gB6AcU4oHFR2lOWOwp7kPIzhLIVxD4tGqB4JfsLSMbNJ4pJba621PPcdYj1/GHGW51fyHjZ7opzQWqCzAPSQOI33cQGPsQBcR+QHrAHXITD0H7cc1n53kwaI0cfkaMElETbnuQctAt8E147LIrjrAM8Mczf4r4u6tpJ93xOfVQCEHvTV2PyYPLgRSApDdjK3wBwQX4ywypKQJH09wsBwWbCAMDHTULVJn2HXuYIjv6/SrA372xYtFziEWZJRQIDfBT3L33a/5RMHKNK+e3F9fA8wzhmLjEmsVUvBG3Ynm9eNN96oCy+8ML7ygCv45oh1EeXBDpDsJwqQYHEDFkiwRFgfQKHaXQ8YFugK6CtjSQBDsDN+BoC5gkgRqh/9B/0PAMMocedHEgBtFj/MJmAEJgjQ585n+yQWoUCuFqJV0FH5w7DdtYP7/GuB//fu545jHzMNnuX8pgIg9KAPTMw2VCfpk4PyF2ARkOqUEKIxY8akfjMABspkrKJvfetbZaFQ3QXGGAI/VWvXuJu6q1PwJ/Yyl4C76ERZF0FaB7ezXKARtAil7tjihsQ9wLfBfYY6Hr9/khBcMiVioZL8K2vhuVitCPSYW5wdEOVeggrHX46FDZBBAxG02WZtTx73MY7JDwGgoZ1EfwBk0BtZKKE9x+YO4IxUyNzDmS0YGryXuf0sbNHmUJxOwLKaImoESFEf/Wq5Ctz3tP5GaI2hQ7/CWhgIMLbRdTnaWuCyBkHsRJQ7JI++Xl7rKABCD/myTBZ8hIi1mGRB/k/iwFFn40+1LGVpXw+/JKIwxFtp3RRJnhVnAbgLFtoBs/ptYeL3/GwLmssw2M9h4MBVN0dZE0av2kJTsAhJvmzp19Df0NBYrfigLYVyXM0ACkSGuAhKLWQBJJEPSZgIyYvSGdgGTPIfNjSU96jwq8HtgPgYlwunJWIwsMnTPlgPf7E5CXtIunYYSuY+0R2mYzLr3g8Q4qIKmMOwEQAv2hEUouq2xzZ6GB2MHbQluHTMmOBaa687P93kSLY2GOBwfxfX3lLHz/J2fwEQesgXPfXUU71FEIAQJgoi+RH+RTugKeuroe5GyUwSJTdbXZr6bKL7J6Trl4ybrG70gR2UZNaDu3Ab02D9EmbVuM92gYf/vVwgYYAkzlJK0zfFtcE9ABOAip5kOWko+x/84AdemGNep5SiaSDUDhce6X/jxIiMK+hzAPrPf/5z7x422KwgvZTx8eGHH3rRCOgGAFmIDunLKJch4x1AQZIpEkQBcshpYHPOFQbyb8aw0c6o0GFbA8grAYOBeyEK9LlnqHAvQA2hIiDBfY6fYbT+MsPB1hX7boCUAuxnG1UFQMjWbxW7i8lI+BabP/kNwgqUJyfXQcnusssuJbcPXyULDWGUfq1DVOUu/edeZ5PW3aTjNl0/QDDrxXIduPUn8Yf6rQ+/AtuYg6D3K1iEkodUaAV8T1L1Yr1ywp8btpvkqRzYdM011+Sum2Hso7hHuBuU2CeobbhGOIIadwXnomAxI3qMAxlJ3jPoGvoOcIJhYOzLueee62kp4grjHW0C2gvmOqcvIlb0z0v/qb5mkZtrL2huuJs43xU3wRe+8IXQJtncc9lB1iCiq2ByWINcw8h1A5r7wwBLkMsyqbAyrs9WtN8XAKGKvzgDH2ERugMOlomyqrAAOKjmi1/8opdZsdSCSwNhEQsdFkXU0biuBsD1//k3cPM9utqCKD9v0AmLbp32XL/40PVHcr3Roy5AsHrMSjJa0v62+1xXRhzjUWqfr4j3843xeUPRw47FUdD+PmLzIkUv1mbeqZHZeNl0KYiCk7o8GDNsbkQUkYuETITm/8/rGwNEcIdgmROmzEbPPOU5UXOK59M+3u3NN9/0jA9EiMcdd9xSYGDuN5tfLkVvm7ALEmyuuO4+fk87MFxI6Y7mwZ9e2e0L/1kr1gZOhUQ0uv322y8TZeEaI1EGgh/4F2LF5KOwAAjJ+6riV7I5o84mP4HljQ9rBBYEym8ssLwWSvQIqIkHDx7sJU4Jyqtgk9Q2fVtAbCEywMDfrpvANvWoxczNaZBkUhswcDd5a4clZvFfExQlYf/GMwt6snzDnjHDBoevHEV9mLYmqgUo3smVwLiPY6SyvAn+cyxgCmebwNAlZQMYO//617+8iAcsYHz6ZCYMOx8lrn2MXYTE1McBbfyMoI/cDOQvSVKog3vx75NPhTTJiAf9Gh/Xkrc5ZP9mc9cARNRzeRaCR1wuCKeDQL27gbtaB+oFPBLuii7K7ybxs5VRAN7mvWssJOmvFf2aAiBU6QgwYQ/IG8FglD+TwU/6U3x95I/Ps7AAw0xst9123iLuX4T9AMHv/7PfGw3oFzmFTVi/nzPOenetHQMl7kLuj6d2z2hwF8Oo9vsXrzz7eUWsC9YL1wDAALdYFmDLwUtsmEQwlAMg8F1IlAQND2DG3RDFpgV9R6x73H+kcIbx4BREzoBI2l4TQz722GNiPqIPwOXB5u6P8vBv2i67BpiAFURUSSg0ok7OVrBiYNgYAQMGNifczd1vCPiteQP+MKBoMyx02mUj7P1d4bKfCeB3gD/0C6xB/hKUGG1FnEvleucCIJSrZ0uoF3qfBQnBEf63uDhwJhEHoKy55preopF3wcpD/4CIKSh80hUX+S19f+SAtc0PHPz+RVucbCGKYhrcxcnYA//i67f6/Pnao0SL7gJWaBHyGV0o5vHxc6hYKYI+rHssSxiuOGq9lJYj3IUqh9XjcLOkWUrdZ2Kx4w4wRoGzDuwcg7C2cQ/PhSHE0sd9iHAYVs8trlstiEEDWFx++eUei0HGSPI3+AEZ9/mzjrrzws++uXPBBSZ2D+sYGgKAEeGKVlyGjn9zdUn8t3/uElVx1lln6ZZbblnmG7tt8oP7Ur53cW9XDxQAocpGAgOeBYTT5kDdbPpxhUmNcppJNHz48LjLU/+eNmEJXHTRRZ4bw6+FMIrQP/FtE3bZA7PuXdGQS/Pbz2ZphKVydV/CnmP3xrEN7qJk9cSFPRoIKQBC6uGzzA34z/F5kwkUhXpWyp2Kr7jiCk95H3dyaemtlohugJrnPALmQVDIYNxzLOwPUSapi4866igPJLmbImONUE90FegMyD6Ixc/cDtIhuQDW/3z6GjchVjz1wFxYGGaQqyQuFDgNWIZx+d3vfud9Y1c0GRTZ5AKMoORHp512mudKgcW09cTetTicKW7UZf99ARCy911Z7oSOJBc5gq1tttkm0TNA6oAJJmM5C5bM3/72N48W9ltrfpGRWTFmTbjUolH1rjra1TAY5e/fjF1rwV1EgqIdkvRDGnrSFVYmqbu4JrgH+FYcxIMFS3a+pP78sP4kJJKESsT4V6qQzZTEPwgYs4AEayfzFjaCmH/AAO+Atcxx7SQ4IhoCYBDGjLh+dZtfbh+QPApQT/gn64MLDGyT9W/WfovcfbarFeA5YaDarsOFxPMvvfTS2HMbXJdfUL24XAE4t956q/eKvK9rPLiHtJWTSarUGKuW5xQAoVq+hORlDoMGxFIg2VHSQkY3LBIWm1KK68d3Fw53EScUisnJZPXrIlx60qU53RBH2ucuTvZMF1Bwjes79S9atjgYkHAZjDR+bLfeQl9QyshJdq9FBfD9YBBKXcj5fuQrQL1fSYDAc2ESYABg7qD9s74LIJnkZkRiwKQAOHgn3AlhdRoYcEGBzRc2WoyMp59+2hN/EtXEKa02v4KAhH9DdlkCYzaCWEI/uDN20NYBNFFoRMhTEfQudj2jx3VThoGPc845x9MhoFfxz1e3rmSjsbgqSQ8UACFJL1XgGiYl/lQ2exB3msKCgvAp7fkL9gwXGNjmbBu53zcPZXnJJZd4vkx8x66y2E91+hced0Om/rjN3AUPLuBwFwer0yz8JHW6C5u7MBXugzSjLt21hLvBPmFVxoXNJq0ZXQBsFkwERw9XsrCxc1YBGzEhkCT0SQoSGLNEIKDtwYWAUp9NlTr4NzQGpEPGHeDOL/9Yt/c1AI6uA1cgJzMirESw7M8p4Wp/bK4HsQiWa8QF7vazf564GiDrA+4naRTrEifO+pkIexc3pNJlEWib2y6uh10hqosEbmhAkoo8KzkulrdnFQChCr4ogx8GgHSkoGTOTE9TUPgi4EkrnArbgF2Q4LbDUDpHxN50002eb9Gd/C4FGWSR+y32sAkeBFjs2UH6AgMmXBN0zrz7Dq4FRV3cw+JsC1gS/UKab1NcK+9cBRJ9oZ7HorXjfkvtGzYMMi8SBlwO7U1c+4gK4PlsyszBuBwEjDVcBwgVESDTL0QjIOAz+p/fExrJBs/vAOHkUrDoH2uTy7Dxb2gWACwAMFyTbMxh7psgNsD/rq5+yDZrd9N2GQmbm/xt4AEARcQHCZjQTdj8ctccq89+5zcwXFbAQBW5JehnxNiluqfivm/x+0KkWBVjgIWTDZ6FIkkGNLfRLCTQk+abS/JCtlFzrWuZ23/7lcv+a1g8SOVK2BVCM2KwXXGhWR8ug+B/ZpT/0rVI3EUpbEFwFxauiQIeZqW4VpBfH5GkD4trkvUAfYtAjo0USxurOK/C+MMCR7xG6F93FMAl7SDqiBTnQfkIDBjgkgAAcLYAlj3CyjBjgGgJQpctrBEQ5EY8GAAHZAAMEDYDvAAGXBdlXScRGrogws8i+lkIF7QYwMZtwmZ+/vnnf+JoZ3fNCTIiwuo2YEGfAMgQd5ai/+iOsdITn1kwCN381aBJUWKTKYyMYWlpM+KrWUyS5j8IohiDWALX92iT2jZ5JjbWE5YObAJ6CYsN97MIZvm4m7stDPZcm/yuH9W1HoL6xDZ1YwHcqAjq9d/jAhQXdHTz51/uH09GQXQ1HDRGGt88rT587PjtsSa749wD+3iMPQ5FQlTI+Qds/BTAA5Y9bhAiIGBPYDoIFU7C9nE/LgcMCDQP+N7JiULqZsqMGTO8iAr6AKYBHQb9EMeCJU1AZoaBfTOXAfQbE/5nkgGRNY2oA7cYW2B1Bo0HP8vgXotBRFQGLk7OmShKeXugAAjl7d/I2llYUEIzIfCjpjmgxiomNwFJYuIyqZmv3TZUm+CmBLbJH+fLdzdaRJWAG5I5uYdIuSDEhITW3ihBlAEHdyEySz+IoXDZAp7pnv5oAMO/AHGdv85uHALL9aOnT5/usQaEBGLd5gkO6DiidvDbEyZYDYX3JaICNyGbOEenQ7WfdNJJnpsAN0JaA4D7mbvkQ4BlJDMhYGvOnDneoVaIJEnlzPNsQ4/T4bhi4jgw4YIgq98F7wbG/d8WMHPvvfd+4ptHsXs2L+O+I88mmooQShjXpGdkxNVb/D64BwqA0E0jgwmBwhfL4IgjjsgksmKysDGzcIQVF427FgE/+10A5hrwW/j+ut24Y+rhsBzcHOgRjDEwGtOlEf1CJX8uBOry+yNtAfP7YG2R8seP2/v622zvbu+c92bVTcOoah8LlQ7oJRwQSr0cBeuZY4z9Vmo5nhVXJ2MZluDFF1/0kpshNERsnPU0VHdjNjDPGEYU+e1vf9v7NQweIYyMaReUR53cyHW01eZVnLAybP1wgb9/vXj33Xe98Eb0B65BEcYcurqgOHDDe8Oc3HzzzR5zRAr6opSvBwqAUL6+jawZgZWbgz5LM6D3yXAItRm0IbqbtE3oIBTvpw7jJqnfAsFNwqJ44YUXehoK28zdTdna56f6bfFzgQD/ZguZfyFy/ztIx2CLjT3b6jf3RdyCmOU7FPd8sgcQ4OFWQJ9SLhoYFxc+bvIpkCipOwpjjNBN3pc/nBmApuCggw7yrFysaNIZm0sgaxthEWAMAB+sGfvtt583P0imxrOg22EoAAY2P1xmwAXDcYmQgtYRE/EagKdu103hGgHcD3MCY4Q2hOIKHo2xDBMk+iMkwvqMzLHoTuiL7nQvZf2mPeW+AiB0w5dCWESoDmpjGICshQWJieamMXU3YjdUyT+J3WdGoXx/28IETiR7wVqEScDdEeS/DAIHYe3iWn/Yky10SWhR1yrhHQpgkHWUpbvPzu5gDLB4x4HNdLX/72qsyHvuucdjrdIKe7M+051bbNgIAwEG6AwQBsKYWApktBeEdW622WbaaaedMrkPeR7gAH3Do48+6uVJ4chky/kAY8E5KbgfYFLQPhDuafPD72Zj/rhuuCTzyDZ4v/Xv3+BtY+eZMBwXXHDB0hTxNpetPVxra5P1qQF4+zvuGxGtcfXVV3sJoHBxFqU8PVAAhPL0a2St+GSZJIccckhJ6JcTzgAHiL+Cip9BCNsk3aiBuEUjyn953333ecpr4tyxaCi2Ufs37ChGw97FL6gMsi5cl0LSxaUbPvkK8Uh88Cj1UegjmksixMvaMTBwuOg4QjivsMm4tjAeASawA+QcgC3gnBRYgqDzUmgj/QFYgk1JC1Jh5gAAsCVkVERrYfH/BpYZ/wgZCZMm2yCHN8EqcJ1fM+DOOd41rR7C3z/+FMe83+TJkz1Wk+gFf7ZTV7vgGhBxLs2w74KLiUgGdC5FKU8PFAChPP0aWitpWrEsLrvsspKeDAtBSmZEShwlG1YsnXEUg+BaA3FMQ5QFwkJ25513ehaNhSEZoHCtBwMOtmBFnYMQRE/au/rTOyelJ0vq+OLmwB4g8Q/qcgqHEKXN5ZG2W/HFszFyBLPlEEhbR9LrGcMcloTWh3EMa0HUDuxAnLCY+0iAxnXHHntsIpDAuCZ0EnBBZBPP4UwW21TdcW7WOfMcFo+IJsIeycvAvUQ4xAGFOKMgrJ+o19YDrqEexgB/A1JcQBTEOBjIyaoHIqIBkTZAIUp3kfQ7F9ct2wMFQKjgqICOPPXUUz3NAOKiUgqLASelYa1HLcYuVR9mgbuWut/K8YsA3fDCIIuIk9vwD3KMLHSo6RFcjYG1yV0YkuQuoL+wStzsh65VUgCEUkZU9nsZE+gBcC8QblvuDZuWMvax5t3omexvEHwn4wxXAeMZPzcsAHS20fhJn4dlT4pyrHoAfRSTgDqfa5kbbLKwD4x51z3Hz2aduxsvcwg3BJEOlhsBUIJOw9Xu+AED75FVo2PPN30CrOZhhx0WKM40sJ/nPCWShWeTg6Io+fdAARDy79PAGrGumazESW+++eYlPxWkjnVANsM4kU6UFe76B2mUKaL52TZf/rZ/T6IDsNhvFjhSxtoC5L60K0K05wZZEn7dAvfZYmbuBf47ioUoubOLCiJ74P777/dCDgEJ5dIc+BuAgp9ICcSxeResYgA4mznuC1KZ4zIrZYwxB8kNAEgARPn7iWfiMkHHA7BG4Oef1y6l74Jl2/Dd9nEtDAvPRKPxrW99a6k+wnVPuD+7cz6KSfT3tzF5MIe///3vPaMlyO3jgvm8vhnrwRZbbOFlpyzlVNC82rO81VMAhAp8UdwBTBwsfTKixW3ocU1iouHn4+yFJCc+ugyBbab2DD/D4Pr0bWN3N2KzROKsAA5qIYkThzqF+YjN/WHWRxiL4GopDCBY+0tZtOP6ufh9dA/wLdjUyLmPa6lSNC/PBSDg1ggS6Kb9bow/ADyUNcCAxEYwBYTq5Rlnj6iQdYBxjwsOpsV0DeQMwK0AwxiWbdLAsuuuc4W8YXMBY4KIB8KRMU7QiNi3cu83oOEChbh5zrU2P0mnjXgQpqUSLJJ9Z0IeWWPp06Lk2wMFQMi3P5epDcuANLOkHkVMA/VeamFhhPZEHU2IU5LiggS/pRFkgRgoCKIjXSveFQb6GQB8r1C0JHYJSoXrshe2EIX5I/0gh3cuVWSVpN+Ka4J7wMABzAF6mkpuCIQW/vOf//QAN7HwWQvjj7nEGMU9wiFHuA84Q6Bc74O7wfz0hEGiUcBdQsInwHRc8UcRxbn8bLNHVMl3gnUhGyPnGQCCmHeuUeA3EJIAcJvHgB+0EghHK8Uk8X68G+wskRNReqy4vi1+v2wPFAChjKOCifPOO+948dGoujnCNY9C2BMiLepMGuLjWh9uSJKbrCiJDsD1ZbrvYm4I/s0FDTAdoHto1SDmxI2KiFIzu4ClAAZ5jKLsdbApwRAhtoVOjsvimf1JwXeyyXH2AUlyoJfTFstMCHBnc+F4ZDvHwMIU09aZ5nraf/HFF3vWNlokjr7myOikxe9qiHMHuOCaZ8ImkJuBcEnSISO4dF0Ndn0S9sDaTNgn58GwxuFWrOQcZW3AGEH/VLAISUdRsusKgJCsnzJdRZjSdddd5y2ge++9d26oGnqVyQCVl9Rd4QIEXoYJ7Pr3oxYDsxBc/YGfYbAO8jMA0KlQtVhmbCZ+gZarRYhb6Mrhw8z0YVfgm/gGHE+M1bvbbrt5lHUlNwO6HmufHAj46dNsrIBRVP64vmgzIYH8IRNjpfzXMAg8H4ElfQlAQeuQ5rApf0RA3Lxxo314b+YkjKblcUDHRA4FrH4/Q5E0NJMkThyixDoH6MkamZB1aqF7InwcN0qlj/7O2uaecF8BEMr4laBfURVDWebly2RRMYoSPUOaEkTTB7kX/HWGLRp2r9Gc3Oe6HwyIsCiSdhVak7A0f3FDpaJYhDTvWlybfw/wvdlgsdbQv5DBsFK6A/dt3nzzTW+TJSlXkiyFjEncCGwgWMvbbbedt4ng60+6AebRm+RFQISIlU1OA9oCi0GuA3QPadwarnYgKkzRNQz42f1euFdIi4y7hj7lDAnLXxIHOvz9gYYCdgLRaCXdC9YOWMq77rrLAz/lEK7m8f17Yh0FQCjTVyNhEClHCVnKCxzQVKg8qF0Sp3BIS9ripye53y9cDAMILDBM/ijrwB92ZdeyEKGb4EQ7fxSHy1CYq6LSFkjaflwRrycJDosvmhIsxe4AB/S7ZSk87bTTIj8DokAs5R/+8Ice7Y2fGoEe1nolWQ+MBAAy2RCJKsCdYcAGcEySI5hGAEyazTVJ2GCUQNk6DxcLbOfpp5/uASdyC5D4KWl+BFgQABu5Hvbdd99umxqwGE888YQXHlpqGHm3vUSVPbgACGX4IKihEQJxEFPeZ5az0RJWxkTMQqXZZuy+dhRAMFeCsQRxC1hUrncWSNqOz9UvJgoDFmX4PEWVGXqAjQy/OeM6jzDdDE1YegubPlbvKaecskw1jL/GxkZv7nFYEkmNOCOkOwp9hjvkhBNO8JgzTl0NK0SD0L9odtAVJQHISeaMAQT+jgP3WN/Mz6uuuso7lRIXDmGZcW2ZMmWKl10ScSIpn7urABWHZlcAACAASURBVFQwQhBKAmDj2t1d7exJzy0AQs5fi0QnJAvB0koSgpj28c8++6z+85//ePkUstKjtmjYs6MsBXcRimMaqM8AQtC1WFLQqfxNMhXX7+qqsdP2SXF9eXsASxwKnG/0gx/8oLwPi6md8QXQJOkYp6BSALG0EfcHND7gARqfTa4SokN/k00ESdZUNn40BmGhi3YvcwJmkEiKI4880hMQJmE5XJGxKw62em3+Jpm7di2uBxgP2EoAIZFSMAphG+7LL7/sMQiEaCZpczkHEGwMoaqwCMOHDy/no1aIuguAkONnZmLddNNN3sZXjgxvtjgSGUHik6zFH9EQtLD4Fxj+O07V7LITYdciroRO5QhgDvPpLpo6a9+taPcRUkiKYdwLJAzq7sJGSs4FNn5CHEnOw6YKQAA8E9mANqec50BE9QFWLACeNrFBsVElTTvN/Eb8SYQSyZLQ7MQZAVGiQnc+JgEILrjnuQAugAKsANoEdCfoJFygwD2wNVwbxZBUatzQ/7h1EZ5ioMX1X6Xa1VOfUwCEnL4cEwULAMsG9iDo8JZSH8ViTcgkmysToJTiXwyCrAN/5ENS90KcwAnFMVQgceClvkcpfVDcG90DLLYwPohMTzrppIop/aNahb+csYMfn3ZRAAccWAZg6C4L1gSczE82URgMxJBpNyg2fA49I2kSRgYgIapEgYC0EQkWcuwH97Ag+PYB87AJiFNNQ8EYAUQwj7OEnJZjDpKwiQgNTpVMImItRxuWlzoLgJDTl8RiIPwQ66VcceHET6OC5ojTUukzd/MP29D918QtvklAh3U3qulf/OIX3rHXJIkpSnX1AP5oomVQpkPVI+7r7sIGdscdd3gMFCcoooUALGPhdicTRRbGG2+80WNZsFppWymuDcszcdttt3knvmK5R5UgN6BfaxSV8MgVMvKcIPYPEIbwGoEoGivcO7hBAGyIG9FPxB1cVanxA2g566yzPJY1zrVTqTb11OcUACGHLwfNiWuBBYvshnGWdtZHfvTRR95E5E9ayyToma6gMIiCTCKCsnrTggnuAySgiMfqylvMmbWPi/u6QlU57If89oAD6OXuFHzhViAJj7nvsArJrYHQNQ60lvN7MuY57wBK24ABm2ZeBdr+zDPP9ES9gISwb+AHA3a4E/PbzV3iv98fAmmuxjBNEtejsZowYYIuv/xyb/PlxEhcDD/+8Y/zeu1c6qFNJNPqLoFqLi9RBZUUAKHEj4ClBdKfPn26R8PmsXGHNQlxFtQZAsW8SljUQRKGwW2Da4UkSc9q9/JOHPJDSGh3LvZ59efyUA+iM9LmsjHB7nQXOMAyZ5FnMyI8FtcdJ6HCpKG0784Cm0HcPSwLILdc2QNxowASiCjgT1gxkGDrD9/MIpCCNny/cWD1JslDQr3kHUArQfIzRJiwmt3J4vj7hfWI1PZXX311yWxrd46z7n52twEEBiibKgOtJxdCfEgwghVRLubA+uf666/3fJKEbuVVwoSFBhB4jlkWURuFJTtKcq3bdotsgJ6ETu2uzShrf7L4ojdJSimjbEdkWq2FTRlrHT9zd4ascWQxwBGfN0p68yWj82Ej4t+6qzA3COvDmkYnkDSbadb2sk4ybmARxowZEwkS+CXtM4Dgzl+70ZKZ2bVB1yRtK4CNbJb0hT8yKWkd5boOdwhh4UHJ2cr1TOplPSBHTZYw9HK2K0vd3QYQGFCkCkaMU5SiB3pqD7AYoO4n1j1JYUMhKiBpEpokdeZ1DaC9O1gcA6NJ+sQ2v7zeOU09/iyhae7N61raUE6WMk07+RYGLtz7qi1kuZJ9xrMQzJLPopSDxNJ8h3JeWxUAgfPKk1pg5eyMNHUTrkc+9UqJYIhggFolCUjexSa61etaH+6/2c/+6932ZGUAqBNBHNbhsGHDqmYRjOprYu5ZENICBFIVwwKVI09G1rGBvxtmg7z8Wb9h2mfb2QjErSM2RNwbpzonSohrKimaRKDH4VToZFDqdxeVDtuGbgeWhyiJIDBnboWob5jX9yVagP7wh3ES7k1eBAuNLDezGjXu6CvaWQnGiXHC3GZsFgAh7Wrgu95lEAiTwYfXUwoT9YorrvDyqXPISSUKojEyxO2///5leZxfQ2BWgN8n6U+yZI1xfZ9ZGsjCxoZLiBf+5p6QKpVMfkSvpAUIHDSE8pvEMtVQEJ0RGYBbgdwU5S4AAxZtQucA2Gx0G2+8caJoBDQrULcAinIXxiR9g9aAnwnl22yzzcruSgx7L/ROgDh0GaRvJ4wv6PAzm7tB9RhLUypIoD/w8bN2+407OxfBUjizOWMEdgfzYUm+0EjEgc9SxxNidQA236kACCX2pgsQOLCEzbYnFCYGvlFQMieHVSq0hwx2HGUaFxedtQ/9oU7uxs/E9v/eWAQTJJa64PA8S4KDNcvm2x10d5r+A8jgG+7JAAFWCoEo4wrwWU5rj++LS5H5c+CBB3qHFSGCJBoh6eYBUP7MZz5T9pwMjG+SFrEZk7YXSxnLMI9xnmaMBV3L/LAjmxFI+vvO8hnYva4uKK/28x0QZzN2wgprPJEwsC98azQKpYZnp+07CxnlBFLO4sjr/YPaUQCEtF8n4vqeChBI5ckfBns56P6wLiOciDzp5do0jZq0v2mHLSyu6Ml1L6SJVkg6dLA+YGfIhMeErubS0wEC1hUnjmIBfulLXyqb2I64dHKEEBkBMMAYgH7OYtGRb8BSLJdrbGD5Yp0DXojkwOVVTuCU9j2Yg7CJN998s5eYjdTubvuwYF2AX441Y6+99vJCYNHURBV0LRwERXZJWKoTTzzRC40sR5vC2gE4OPfcc3XGGWeUNZlTARDSjuTlDCAQscCJa1gwlcwAyIEvJP4giqGcxR9P7VogJtDimrhDX/JoIxsJx/lyAEy1lp4MELAy//rXv3o+bdiaLJt11HehfsAe5yJY0hoAXymKf84GYJMJOqQpjzFCm4mfZyMBzGywwQZ5VFu2OgBeADz0UJxY2bt376XPKrcwj3lJ/hKYgTSFduJeYuxxKFWlgBfPYwMPcsukaX/UtQVAyKsnJS8sxqIYeoKLAWuL8C8WEaj+pJRoHl2G6p2NOQ6t5/EsO/wlSLiYJEY6jzZQB3T04Ycf7sWAk1+/nNRg1jb3VIDA5sHGDYXO5o2FnEehXuL2WSjRWUDPE93BuQJ5FJg7zlsg30ieBYsbSxzKHMsc2j6vPsmznUF1YZ3DqiCcRBNQjhTv/ueSSZGsiqj0swA+2kzuBJJKMTYIkyz32Rnvv/++x2KR3p0og3KUAiDk2Ks9CSCw8N1777167rnnPKs26eEreXUX57NDzZF/vtzFzyLEnatQzvagboc1IWVqNaZj7okAge8LIEdlziIN1V9qATST5fPFF18ULBvZBclpkeUsgqi2YC2jA8hTqAsrAVCizUQG7L777t0WpZD1O6CHgtmkkEyq3OsTuSjQZJQS58+YQZsAUGVuI1JHB1MuRoE1nDM80ECgKSlHJEoBELKO4ID7ehJA4Px50rx+85vfrFhYo3UZNCKZExEDlWvy+D9PmjMVchwSy1SFZQcdSWY/NB95bGZ5trenAQTAAaJKFmXGVFTSnST9xCLP3MC/TAggobiEbpYjqyCb4M9//nOPVSLiodRi6aSJQuH0VdTnlYiM8NpNcriZMyW0AmusIdXXl/o6nmgaBoRNigiZcjJul1xyidAg5CGYhk3Asod5gqUFWMIolKP9iDvJfIl2AvdG3qUACDn2aE8BCFgY+E4JSeOshUoXFmCsvUqq+sMSoFT63XkeCx8H9ABaOAiLk/KqpfQ0gIDyHCasVKCL+wfghmgWMAA9TA6DcmZeJAQWbQCWMiF+pRQoclLwwkbQZmjnSroM9eab0q9+JU2fLhEFkNNBWHwX5gqumLPPPrss7gbWbSxxWJw8c8DAPMEo4ArgWxx55JGp9Q1xY4J1jbTdjFVCL/MGIQVAiPsCKX7fEwACVgaWFjnQoaW6o3DcLtYZ8el5D+jueJ8sz8S6IJU1qWZZzCupgI5qb08CCPiM2TxKscABa7h8YAxYYAHMRPJUwu+NdUmkBfR21sJ8BtSQ14A5Td6HtCK7rM/+xH3PPCNxnsrEidKzz0qjR+dSLZXA6sASIcr7yU9+krulzNHPb7zxhpe+uBw6DfJO4FrkGyGERKycpzuAEzc56IsU0XkzsgVAyG0Y9wyRIklAUGKjO6ioheH0M6ekcSBKnmg9x89YsaqI1wesXXDBBRUNL10eAALUKhs7izoWf1qgiWVKSB3Hc1922WUeUEOclufCHTeQyIgHNQyNnqUQughrgKUKG4e7qrvmtMoIEOgbgBBiTkD1+eefn6trDkEkoAqAlXYcJf1utB/mlvWXEEVOZMzrlExYhPPOO2+psZG0TUmuKwBCkl5KeE01MwgMIpAy1D4CwW6xMiRPUY2/D4BQtpwLH30knXKKdPPN0r33SrvvnvALVv4y/MVkKCNPAn7j7i7VziAwjkkHDjggZC+puI/7sNiZo0TQwDzg/yd+vbsK4ZhsTrQjTUHDQ4QCoAAXFSCj20uZAQLvZ4meYEwwcBA4lwqI0JgA0MaNG1exMG8sfkITYXuIHkNkWCowZU4g5iTKJk8WoQAIOc6sagYI0FwopgnBIbVqdxWOdsYSsKxzZWlHDwIIvD+bFSl6EWJVgtruyQwCcwxwgIuKxTXONcOmgoXNCXivvvqql0aabKHbb7997L1ZxqYl5bKY/agNjEiDiRMn6uijj070KDQrgArcIaTvRuRbDko8UWP8F1UAINgjEQDi20f8R3hfKSCB/iQCBoFi2QyWkA7lHWASAHiIIxGUunkf0n4HNBqch5LnGQ0FQEj7FSKur1aAALWF3x+V67777lsyWi2ly0hEApWLwjpLvHGiZ/cwgMA7XXPNNZ54EfFoqYK1RH0UclE1MwhEgECpU7Ago8ABfmtCFAEFFAACbEOex4q7Xehm7XRPSIw6zfHXv/61l88/SYIyLEQYQAAOAP+ggw4q5TPnf+9rr0kXXyxNmSLddJM0YkT+z3BqhAnF2GAdKeXsGNJkc4QyYLNUKz7LC8MGcRgSieMAKCSsyxrxABAmBwhahLwOClyeAMLSQ786/Rlxsny5DPdUI0DA10oIGLQWYXXd5VqgO1k48cFBDZf1nIoeCBCwDi+99FJPhQ5VGGcZZxieiW6pVoDAlL744os9C+uYY44JzZKIvgbFOxvpiBEjPLcCYtxSwx/DOi8onbd7LQAhzMIliohcIFHhaYwLNkIiNZi7WIdZN5BEAyDrRY2NXQLFpiYJhtLJgJi1yrj7OOTqzjvv9MASG2vaggaEfuVvxn13Fpgkxi2nvxJBQ8RDlkyggE4OhYOhzaMsLwCBeWpn71TFcc+lZFK0RacU6swGBxQag8ZETHkMmqx1AKCg00H8ZXVz9ECAQJ+SmAeftCW3ydrPpdxXjQDBwAECMny3uBf8BcaAsQVt/+lPf9oTgGGdQ8GXU3jmnvMR1O88OwzscSYCgruwMFcWNASUiBEtRr8adCqB44s8CB9+SAyvRE6HCgAE2gF4wuhgQyQLYppCaCiZZIksqIYU1IBBoikAC+giEE3iEk6zDyDehY0kfDaP8OnlASAwj9zTQHssQDCUY4M8ip5MMhHoFCYOSu1yxnMnaQvXkP8ABS+0IKfdla0AEE47rUuk+K9/SbvtVrZH5Vkx3wtKHMYHq5d0zJUu1QgQWPAAl2yo/kUPYADzwkmAhMABPAEFQSAi7770LzxhACFoHjPXiWBBoBi0kHMEMmmGObSI7I0I2coFdHLpl3fekc48U3r8cempp3INc4xr3wcffOCBBER/RLUkLeQn4HwKTi7NU9iX9Plh1zGmEaFiZMJwoE1KmpodxgxwAduUVMAb1d6eDhCCTvTtkQDBMv25HyuKnowbhCxAJI+BfgOJVkNBXMSAQ5TTXRR6NfRDXBvuvvtuz5JATIfLoZKlmgACY5gcAYAm3AomyGPSk60OlwOqbQ47ItthpUscQHA3dP94x3olcgVmzwUzrAPEtCNgwzddTRtXZP++8YZ0wgnS/fdLH3wgjRlT0c+BCJtoIIwPUkvHgSnGFn3MH86pqNaCNgGAgFspafQZInCSfgFAs7gp3L7oyQDBdSu479RjAIJJJYz+CJJOZDl+GATK+fToDjgYqBoK78hhNwjxyn5AU3u79PHHJKaQSD9KpsKammrohsRtQGhERAN9VTYxZ0BrqgUgsFGSCImFjlA+GDCEeixYAE2iPjh3Yfz48ako2MQfIObCsMUn7DY/2Ecj8fTTTy/1NSNWI5kOWRVJ1sR3L3Vxz+tdE9XTzQCBNlpuDCJUdtttt0jRIeOLnAqwMzAP1V4wGhgbuNiYC1EhnrBtiME5D6LUk2N7MkBgHwwqPQIguAcIucDARb6pDxXq7PT6g+Nd8cdefMklVWOBEEkBQGDQln1CAgx+9rOu1K833igddlguueEruYhAFUJ9IuasJANUDQABMIlvGfaAPAUoslmo2EBRnBPBUFYNS4IP7T8ALOgWrmEO84efXbCPCh8BMdlEsRIR3EGV4xLk0KAeV6oAINBnaK7QFaDjYd6E+e+JiMHCJidLuU9dzOtbsuGRVploBd6NOYDrKajgmuA65nMpupWeChCCGHnrpx4DEIyijKLDYkFCZ6fmPf645j/9tDrb2gRmuvGOO7Tjlltq3JprqtfQoRq6++7qC+XXjVY0/j5QMH5VVLZlLcsBQKB/EC0SJ42bqKxRH87HqAaAAF3MQsjCRnZANlKiE4444ojyaldSDEo2fBbsOCrbrdIVLOIzBywDChAhskkRvdKdIa4pXn/ZS6sEINAw1hoL68ZNF1TQeJBPgwyEPa1gbNF2xgpaA0C0HyjY+RKkcYeRSjNO3f7oiQAhDrz3GIAAyklSwpTQM2+/XXPuu08LnnlGC195RZ0dHR5AaJLUX1IdfwYM0KAddtCgbbfViMMPV78ynRse9h5t8+Zp4csv65UXX9Q/nn5aJ3/rWxq0+eaqJ2tguQDLcgIQ6FMO9EGkh8uhEqW7AALk16LFrZoweapO/+GJmjRpoudCQMBH7gJErVkXuXL0G+Ce+ZumTR0dnZqzYLHenjhLv7niF2ptmqPR4zbWYQftpW227oGsgduxkydL111HWIF07bVlz4MQ900JF0Sbwvg56aSTlrkc/QoWOK6InlgAzAi+casg/saVQBSHy5jAIpMpEhddQ0NDptfsiQDB9tWwbAc9AiBEUSBBX9KlJ1umTdOHF12kmbfdpmYU+0tcC1EjoLZfP/VbZx2NPe88Dd1jD9XkcBxr2PPaGxs19brrNOtvfxM/t82Zo4WNjZq7aJFWGzFC9UOHes8ftt9+WuPUU/MHCssRQKCPWQiwqDmzodzsSyUBQmtbh558aaJuu/dlLVjYrLb2Ds2e/qFef+U5DRy+pmdhb73JOB2+z+Yas9rQVJtxptUwxU3MX0uIFHcb73bZTf/RB5Nnq7m1Q43NnZo9a7Ya58/W6quP1kqD+2tAvz7a8zPraZ/Prqde9UD7HlY45nnOHKm5uUv3U9f974AVzQFJMApEuLiCT8JGOSa5p7gXwkYD2hWSgJHwCbfVVVddtfSMB/Re5NpAhzZq1KhMA6qnAQRjD8ytF/TSyyVA4EUZ4Ivff1/vn366Pr7jDnW2tKT+6HUDB2qdK6/UKkcckfreuBs629s1+x//0LsnnaSWqVPVQWx0BHip7dtXvUeN0ppnnaWRX/96XPXJf7+cAYQHnoYOvVnvv/u6Pn/od/TZrcdpyw1XU+9e+S/ClQII70+epWPPvUuNizpU23dl9eo7uAsodnSoU52qqa1TZ3ubWppmqqZtnrbacFVdcvI+qqurTT4OynhlUPiU/3EAnl/f+pT+/sibamrro4bBa6imtlY1qhH/Uyf/8/5P7a1NammcorGj+uu0o3bWJuuW2Q2Xd98sWgS3L82dK229tdSnT95PyFQfFjSCbQSuHBKHoYULi8gA3BDLS4FR4F1POOEELyqG/BmwBoT/ApTI0JqlVAtAMD1P3DuEuRdcwNCjAEKSF+flvAVp9mxN+PGPNfV3v4vrp9jfb3j77Vr54INzs95hCl774hc1h7wDKUtN795a9dvf1thzzxUApuTCInXRRV2U51VXSaSlLSNjUnJ7nQqgoZsWt+r+p97Vlbc8pVlzm7xNpVefgaqr76P2tsVqbV6ozo529W/opXOP301bbbSa+jf0Vm0OLptyA4TFza3ee918z0vqP3S0GgbEh3F2drZr/qwJ6mxt1O9+dqA2HLeK6rsZKEQBBOb0tI8b9csb/6PHXpyqQSuP875dfOlU04IZammcrp8du4t232Gdbn/P+DYvuYIUyxz3fMcd0mOPSRkyGyZ+VsoL2Tw5twItCxslp3jisjrggANS1lT9lzP2SMl9zjnneAfikXnTTgzNEhXT3QDBdHpJQ/6ThB73CIBgIRhJAQLW+dSrr9b7OcXs1vXvry2eekr9yXpWYmmbO1cTzjxTU668MnNNNXV1WvU73/HYhF55xf7DXuSwaWZ+qZQ3Nre26YkXJumGv72o196fq36DR6l3XwBTcIhmc9McNS2YrnVGD9SJh39Km6wz0gMKpZRyAgTAzq9ve0r/eGKSGoaMVW1tfaqmLl44S3Vts/TDr22vz31qbfXpne7+VA+LuTgshIr5POGjubrilqf1zJsL1H/wKNXW9Ur16JZF89Q4d4rO+Ob22m+nDXsGSKhigEDnAxIuu/xSDRgwUA8+8ICu/d01GjZ05S42ZzkssAkkgUIEy8+jVx+tk0/9vnrX9VZdbfLx2B0AwbKTWvi/6XySJA6MAggWUdSjAELSsYlr4ZUddxT6g1xKTY2GH3CA1vv971U/ZEjmKomcmPjzn2viT36SuQ67sbahQWPOOUerHXeccD9kLvhBX3xRQlk9frw0dqxUWx3UdNg7QUf/6Z8v6fq7X1WzBqlPv6EezR5XOjs7tHjhbA3tu0iH7r6e9tt5Qw3qn8RaDa65XABhfmOzrr/rWd3x8ETV9ls19aZprW1ZPF+D6ufqB1/dTjtuvVa34T+/hsiA/sJFLbrs5qf0z6emqd+gUaqrzwbYWpsbtWDWB7rgxF212/brxA2D7v99lQKExa1NemfmS2pqma85C2bpumt+q3lz5+nE047V8P6jvM2Sv0cPXVu960pYc7r/CyxtQWt7sybPfVczGz/Sh5MnefqlxQsX64wLTtGgvkPV0Gug+vcZqLHDNlL/3oMiW15JgBB3rklU2nJ7iTgGwQMZ1X5YU1wYRtAX++Dkk/XR5ZfnOgx7jxypdX79aw8oZC1zHnhAb37lK7kBlz5rrKENb71Vg0pJXoJYyvIg/P9Uqjr8cKlXctSctS9Kue+mv7+gX//5BdX3W3UJa5Cits5OsaE01MzR1/fbSAfssmFm67ocAAG3yYPPvKvL//icFnSspF69ibHJVpg7zU2ztPmYOp389c9ozVHZwW22FnTd5WcQDCD86z/v6Pzr/6s+A1ZTXa/SNhyYhGF9ZuuiH+yltVcfVkpzy39vlQGEjs52PfH+PZoy7329+tGTWtA81+uDzo5OTxZVW9fFHNTW1GrkoDW19vBNtdUaO2uNoeuppqa6jYmojzlh1ut67sOH9d7Hr2jq/AnCgKAsWtCqhoH/WwMH9h2q9VfZWmNWWl/bj91LtTXBxkilAEJc5AHvEBvyL3mRRWHRC9Thif2rHSDEoRz/AGifP1/PrbuuWmfNynWi1/TqpZFHHql1r7kmU73oDt466ih9/Ne/ejkY8iojvvIVbfCHP2SvjpPlzj9f+vnPpcsuk7797aoRTQW91CPPfqCzrnpANf1WV68+yx5ElKwjOtWyeIEG1MzWT7+zo7bZeHSy23xXlQMgTJ/VqEv/8IQef22h+g7gTIHSFuCO9lZ1Ns/QUfutoy/uvmlZxJpxnRfEILR3dOqwU2/Tx4sGqW//fDb0xfM/1H47jNIp39gxrknd+/sqAgizFk7T/W/9SS9NflxNrQsS9Qubz6qDxmqz0eO1+/pfTnRPtV10z2s36LWpT+qjeR8kbhoMwnqrbKX9Nz5KQ/otqwcqN0BIIvZ1XyZKixCX3ZTf9wgGIS1AmPfgg3p1jz0Sf/Q0Fw7ZZRetf8MN6jM6/YYCe/DOscdq0dtvp3lk7LW4GrZ5/fWu5E5ZCopqRIo//an0i19I3/2uVIrLIksbEt4zb8EiHf3Tv2hqYw6bSmenFi2YofVXq9Fvf5btuNdyAIRnX5usH172iGr6jizZqrZubW6arc3H1uuUr+2g0SMHL+1tWyTsH1w/5lIf5JLshgk/0TKXBS1E/NsDT72nM3/zHw0esW7JIMge2ta6SKv2n62fn7C71ly1e9iSRP2EMPjWW7tceyefLI0bl+i2vC+aMvc9/f21/9PbM15Qe0d6o6VPfYM2X228Dtv6B3k3rWz1wZb86flL9eKHj6mlfXHq5wDY1115cx20+Xe0ysA1PnF/uQCCAQMeFmXxB71M1PEDYQyCCf17BECIokF4AX8ClqlXXKH3v//91B8+yQ0DtthC6/7mNxq47bZJLv/ENZPOO0+TLrjAy3WQd1nniiu0Kht7ltKDAMIf/va8fnvna+o9eK0sbxp4z+ypr+rSk3fXZ7cam7rOvAHC4uY2XX/Xc7rhXxM0YEh6EBr2Au1tzdLiafrFSZ/VVhuO9uaM5SUIi4E2sZMtSEmV0f42BFk91Pmjy+/Vk282q9+g/EIUOzra1Ldzpo77wsbae/z6qb9nRW+wkOZuEgbPXTRTd758rV6c/GhJr11XW68d1z5Q+2/yzZLqqdTNf3v1d3r03buE9qCUsuHIbfXFLU/Q0Ib/MQnlAAiugZxEpO++k7EAYYf9JTG+q97FQB7wsAxs5DrwA4gJp56qKWXKpNdvycIicAAAIABJREFUgw28vAgwCWlKx6JFeuf44zUth5DLoOcO//zntdGdd6Zp0v+u7SEAobWtXSde8De99lFv9SYPQE6laf4MbbR6h6456+DUIr68AcK8xsU699pH9dRbzerbf6Wc3pBqOrVg9iSd9tVNtedn1l2aXMg2/6D5ZSIo/+/SHogWBPDRWex97PVq67tmSRoLfwfhQ+5Y/LEO2WVVffuL2+XYfzlXxZx79lnpww+lz32u4pkUW9qb9cg7fxU0u5dYosQyuGG4Dtj0W9p8tc9WVYKuT26WHXpl6pO66+VrhVul1IIOYdf1DtHu6x+mXnVdQudyAIQ4V0DUexigCJuzbt1B4MP7tzw0CGG0R1RqVRJSEFtLVivO8g7Lnx8WIkXHABD8IsZqBAjNU6bo3RNO8PQH5Sj9N9pIW7/6araqSSB1++0SiVDIxb7fflLvbGrybA1Idter70zX2dc+olktIzKr+oOe1N7WogUzXtN91x6lIYPSpVjNGyAQ2njiRfdq8twG9fJCNvMrC+d9pK/usYa+uu9m6ltiyGMSAZS1PAggkEJ5z2//XkNHbZ4o+iRxL3R2anHTbO29zUCdetROueS6SPzsNBd2owaBZFOTZr+lm/57oafcz6tsMHIbfWmLEwN983k9o5R65jTN8MDBi1MeK6WaT9y78oDVdMgWJ2jtlTfzgFE5AAIPzJKqnPtc9i+IRXBdjGGZTjMBBLMurBF+gOA/ZdH8mW7vJgUIYQyCG8bhLkKTzjlHH559dm6DwK2o/6abap2rr9bgT386Vf0eQDj+eC+jYzlKwzrraNtStA0dHV5WPi+8sUpDHO9/6h1dcesrauwcljonQFyfz5v2mq46fe/UYsW8AcLMOQt1zLn/0JzmIarv3S+u2al+v2jBdB00fhV986At1a9v6VEqSUFCEMCfOadJ+x53vVYavVWqd4i/uFPNC+foc1v002lH7dQtgsz4NkqaPl064QTpttukf/5T2nPPRLflcVFbR6vue/MW3fvGzXlUt7SOgX2Gem6GrdfcteryJXR0duilKY/pLy9ercYlERp5vfzn1vuSPrf+oepb369sACEri+CyAmEuQjtELdTIT8MguAcmpRFLBAmekgIE/wJjPlP3hd0O/Pi22/QWoXplKAADciE0rLtuqtqrGiCQF/7++7sWqs9/XvrsZ6syzJEzCP7vnvfUWjssX6tT0oKP39OPv7G1l2gnTSkHQPj2uf/Q7ObBqi8hvDHoHfIGCPaMOG1CEMCfPW+R9jr2/zR01S1yEyh67VnCIOy19UAPINTWVmlin3nzujIpEn10yy3SoYemGXYlXbu4daEuf/j7XlhfnoUkSuPH7a+9NjpCDb2yRhfl2aL/1QV78OcXrtRr057O/QGjh6ytb2x/llbqt0rZAAKNdk8zdvde5p8Z7HEaBfd8DeuIuJDJRAxCVgTj/xrGLEB3JAEIfveBK5zy+1WMRWidNk3PrL567gMBy3rlL3zBi2JIm5iobf58j0GYfuON+bdL0tA999SmbPBZCv5QohdgXS68UDruuKqMYvjjPS964r32+pVUExKHnOX1uadxzgR979BNdMgem6aqIm+AMGf+Ip162f16a1q9eveNTsqSqqGSFs6doq/vPUaH771p5rwPYc+M8nHavHRZRRJd7Xb071Q/aB3V907n1ol6bzQIbYtm6eDPjtDxX94hbRdV7vr587sYhBtuqDhAmLHgQ114/zFq70h2Om6aTll/la100Gbf0YiBZVh/0zTEd+3E2W/qikd+qLaO9OfxxD22vraXTtjpl1pj6LplBQi2B38iwmBJhJHrgogCCUHzlOujjmKPBQj+EIs4lBLXoXbEJud0H3jggZEaBL//0gUIfjS0FMR0dOi1vfbS3AceiGtKqt/Xr7SSd/4BKY5TF1LKnnmmPrz4YnWQuTDnQkbFNc84I1utPUSkeMeDr+m6u95SS83wMjAIb+u8Y8dr10+tnaoP8wYIjU3N+uUfntS/n52jhoEjUrUlcuPsaPdEiud+Z1vtuPXYXHzz/nUgaPEJimCwOczhU69PqVXfBOdLJO2Izo429e6YqWMO3FCf3zkdG5T0Gblc140A4fkPH9aNz5yfy2v4K1ll4Oo6dKvva+yw6ur7D2a9rssf/l5Z3plKv7LNKdpqjV00fdp07bHHHoI1+9WvfuUdKZ1nsTBk95hqq9/2yrD92Vj8oHsjUy5HuRjCaI08XhqAcNBBB+nxxx8PFSn6G+6GZLkAwZgG65y5Dz6o1/fZJ9eERJzDsOn996v3Kqtkev2P77xT7510khZPnJjp/rCbOJxoyxde0IBN01m/S+vjFEnyIJD+GQYBy6YK8yA88uz7uvSPz2tBx8q5axDmTH1JN557sHewUZqSN0DAsv77w2/owj+8qP5D18iNfm9rWaiV+y3QWUfvoPXGDPde0Z+z3bXwXeYuLAzS309BqV1dgO+v566HXtcFNzynISNIjZyPK4BwzpX7zPQOb1p/bPzBVmm+da7XYiTA+L30ksQhcDmc8ZK0fY+9d7f+8uJVSS9Pdd2w/iP15a1P1rjhm6S6r9wXlxsgfHGL47XD2H00fXp5AUKkEdDZuTTkP8z9b+AgDmCY28JbJ8IAQpIYyVI+LC6Ggw8+OBIgBDEI9vIWweAyHNYeDmt695hjNANKP+II5aTtx6WAOJFMillLy/TpevOIIzQHfz+CwJzK4B131OYPP1xabb/6lXTiiV1JWwAKA6rLh8jLTfhojk7/1b81deFw1ZeYltftrLaWJnU0vq/7r/umeqU8EjpvgEC73nh/hs68+hHNbBqYPo10wChgvjQ3ztTuWw/WMV/YWsOG/C91c1h89NJ51NnZdTJqwjnk1yNERSBx2Na+x92kjr6r5eZOaV44TbtsNlg/+c7nUoesljaBUt5NfwIS0P80NFT09NQCIKT8VgkuP2DTY7xcEH6AsOuuu34iyi4oqs8OVYqK+EvQBO+SuD3bQHqQFiHs3kCAYBZEUush6Qu41yUBCGELjNEl/iRJbv1kLHz7iCPU+NxzWZq39B4sdIDBOtde6x0lXEqZcfPNeue73xUnOuZRcHugiRi2776lVXfFFV3MwQ/+f0Y0MipWIUBob+/QWVfdp8debVKfAfnR7wvmTNL+O4zU6UfvnLoPywEQcDPccPfz+vNDU1TXsLJqUp7i6H8JAFD/mlk66ctbLj2wKcjaD3t5E0BFzTW7119vHO15499e0HV3val+g1cvOXSV9+zXOVUXnLS7d1JnVRfAwT33SC+8IB1yiLRJ5Szu/068Xzc/+4uydM+IgaN12FY/WOFcDEds+yNtsfqOS10MHJV92WWXCYBAMWY7LN8I1xhYLxUoRIHysHlq/+4a5Evb7GcQ0qZ19IcwumKKqFHoAoQHH3xQO++87AIdd5hEVP2dra2a99hjmnjGGWr8738zTQiOVR519NEae8EFqh9cenKejqYmLx/C1BwSJgFWVvve9zTmJz9R3cASY+afeqprweJcer5DFeZB4AM+8eJEnXHlQ1L/NVVXV3quhraWRWprnKj/O/sArb1G+vMAygEQeM+3JszUxTc8obc+knr3G5Y5+UxnR7vaF03T3tutom8cuJWX58HCE9NOiLiFxxYUl0WIs2jI+/Dz3z6m/77TpH4DV8msLeE7Lpg9Qd89ZHN97fNbVzd7QMd3owaBswcuuv/baT9/ouvJB/CFzY/zDnSqpjJh9hv61SM/UEcZhJn1tb313R0v0piVNtDUqVO15557yg8Q4vrCBRBJjmmOqi/pnhkmWPQzhsswCK7qOIpaDApdtIabmML+DnohFyA88MAD2mknwpL+Z6Eb0DAEFtfJQb/vbGnRgmef1YfnnKN5Dz+cSpNQP3SoVvvud70/vUbkZ7E2T5qkt7/9bc3OGnXAi9bWasQhh2js+eer75pr4lDO0j3/uweXR3s7MLZq8yDQ2OaWNp137UO695lpGjS8tHTLpOVtnP2hDtttjE78ymcydWG5AAJsyZMvTdLFNz6l2Yv6q0+WrIqdnWqaP1lbjOunk7/2aY1eZbAHDuLcClFMQpi7wZTVtibYM+Kin8io+Pr7M3Tln/6rNyZ3qIHDqRIc2+22Eeagce4UHbzzGC9yoX9D6cCxtMmU4O5uBAiLWht16UMnasaCyQkamu6Sz6y1n/be6Gvq17tEgyXdY2OvJnPirc9fqrdnvBh7bdoLRg0ao2/u8DMvzHHKlCnaZ599UgME/zPTZit17/dH/oW9T1h4sjGGS89lcRmEuNOiDDDYC8TRIVELhJ9BGD9+fNfxkks2u7i2BAKCJb5SnmtIrKO9XS1Tpmjuv/+tD047Te1x9H5trYbsuKPWOO007xjlukH5hpt5G93EiXph/Hg1k2o1ZYHVGH7ggVrrwgu7Dmgq0e3hPZ4MjxyPTTz217/e5Ret0vLxnIU68ow/a3bzgMx5/AmHa5o/TRuv0Us//c4uWnVEtm9cLoBA15Na+umXJ+nMqx5Uc+dA9R+yWuIvwgmO82a+pw3HDNR5x++mUSsPTHT8a9wD4hgB7jeGwp3HfkPBXJfeYuaBhJm64pan9frEJg0cunpit0pL01yRIfKYL2zmhagOHlDakdFx75/b77sRIJAo6Z+v36gH3rott9ehogF9Bmu/jY/StmvunpnxyrVBTmUc0PTcpId0x0u/VlNrvmfh7LzOwdpt/S97iZJgEPbee+/MAMH2rawg3l45SeZF/zz19/3SOgwgJEEeXEPjg1SQUR83KBlDEEBIQ0/6n2fgxRSY/L0UBdXUqLOjQ1D8C195RRPPOkvzHnpIz0vibMW9yCXQp49WPe44rXb88eo9apRqodlLtcwjOoVjqXE1fPCjHyUOfeTkxtWOO05jzj5b/JxbufLKrsQtVSxSdN91xuxGffEHt6i1doj6D141VTcwTkgaNGLAIp193Oe08dojM3/mcgAEA9U2dmfPX6Sv/uh2zZrfpoHD1lSvPuHWmQd85k1V04IZOnSPjXXClz+lPn26sia6jF+qDnMupm1RMdNBAIF/C6M9/0en1mjugkU6+zcP6NHnJnqhj/0GhwOi9tbFapzzoQY3tOvUb3xWO24zTr3qS9MHZe2TTPe5AIFcCEcckamarDeRF+Ca/5yhppZkxzsnec56I7bUIVueoGH9RyW5vOLXwCLc+fJv9MpHT+b27KH9RuhLW35Paw/b1JtfAIRSGIRSGD73peKYuyB3YFinLHUxxAGEUtGN34fpBwifJYOfI9bg56iDmoJeyEVFce8zc9o0nX766frLHXfo7jvu0I677FKyCDH1yOvoUNM77+jD88/X3Mce8wBMW2OjZi5cqIa6Og1saFBd//6q7dNHA7bayjsoqvfIkfkDlx4gUvT37TsTZ+knV9+nybOkuobhqqvvExkW6B3k09aitsUztd5qvXTcodtrs/VWzQwOaE/eAMFlzVwrmzDAvz/6pq6/63ktXNSuls6+6qzrJ7W3edZ2pzpU19GoXrUtGjd6qE48fAets+Ynwxmzag+CLIso12GQZeLORWMWgnytHZ2deuuDmTr/tw9pxuwmz6XU2NTqBf009B+s+rp29a5rU0Pveu36qXH66r5bLtFVpJ553X/DKadI114rnXNOFzivYFnUulAPvn27Hnr7z4JRKLUM6jtU+278DY89qOby7KQHxGmO8xbNKrmZnGKJS2XXdQ9VvyWZIzmLIStAiMtImrbBcWyfgYQ4d8ZSgBBXoW3ecW6FsBfx1x8GENyFI6mbIUwPEQYSAB533nmnrrnmGi1cuFBjx47VtddeqyFDuukMediNxYs19+WX9edzztEljz2mQ7feWkfvv78Gjx+vfuuuW7oQMWqE9UCAwBl0k6fN063/eklPvjxFHzf2luoR4dX9TxHvhem1CXDQ3rJQowa3ausNR+lrn99KI4eX7ifNAyAY8xXk33ejiOrq6tXS2qZ3Js3SH+54VHfdfY8mPH+nGgavqs12PFRHH76Pxm85VqsMH6g6J8Ww1ZHXAhQHvMPWCXu/JCIsRF6PPv6U7nv4Sd1y842a8dEH2vOLx+urXzlc2266hlYZNkC9e9WnXTOr6/onnpBef13abruKRjFYJ0z7f+zdB7gmVZE//rp38gww5Cw5Z0RBwZyz7v5MYM4RVMw5B9zVXRPqqmsCFEX9GzAA6iqCAQMgSI6D5DgDk8N/Py/W7Jmm3+5+33tnmJE5zzPPzNzbffr0OXWqvvWtqtOzr4wTz/1ynHftGWMCCU4SPGSHx8cT935x+Pfq3BYsnhc/O++Y+M0lP4qFS+YPPdQJIxNi5033j8fv8YLYcub2y8uA+wGEEuzX2c82Iz3MQNtYhOyzjbXoAYQunY2Hgsnv0Bucg5LyHARJiskgVL+xUH7/oTpRTYmSru2nzC699NL46Ec/Guutt17ccMMNca973av35xXDnJI4zOrV3HPTTTfFcccd1xvXhhtuGM95znPiDSj/VdHWQICQ0yKh7+wLr4lf/+myuGXOgrjy2tlx+VU3xVUX/yUmTBiNvffZN3bbedtYd/rkePQhu8SeO20WE8Yjb2OMDMJb3/rWeNOb3rT8HPV+y1waeHvhT3/6U3z1q1+NX/3qV70Q2tSpU3t/yIpE334gd7yU0LAAoYsYcxpOPvnkmDVrVnzta1+Lyy+/PLbddtvYYosteu/13//937HOaliC2+Xd7nKN7zHMnRuhAulueCdfdRRq+Mm5X4uLbzw7lixdPPBrjI6MxiH/SEycNun/ztcYuKNVeMOcBbfGSecdG6df9uOh31m1xsN3eUbsuNGK5alNAKEE++kUpP0aNGTfdbq67FXXTJrUH9itABDSqNYZ4i7Iv23g5YCrVQwJEKqIpt9Ldj1golq2iT2gfM4888y4z33uExdccEE8+9nPjk984hPx2te+NvZehTXJOV/nn39+HH/88fHFL34xdt5553jsYx/bU/5vfvOb26Z0fH7/mc/ceQ7Cq18d8YEP3Km01rAm2W3hwsVx/qXXxMtf9Zq48KzfxOiECbHbHvvEgw45KF7xipfGNuP8jY6xMAhvectb4o1vfGNvlkvlUTftfj979uz4wQ9+ED/72c9i7ty5PflAZ/7617+Oddddt3dIi0+mP/nJT+6B3bINmztUN5YuSmdQMAIIfO9734urrrqq947bbbdd73123HHH2G233WLLLbeMc845J57//OfH/e9//zVMMvsM99RTI84+O+LggyP23/9ueScgYdbNF8bvrzipZzAxbV3belM3igfv9JQ4ZIcnxNRJ4/vl0a5jGPa62xfcFsINwiyz5988UDcP3PHJceC2j4ytZu64PMctO+gHEKrOdZkbNywj33XQbR9j0k+T89/KIDTFDLsOsrwuE5b6AYS6wZZGfphkq5wkfZ999tnx9a9/Pe573/v2kqcoJUrVv4866qied7Yq2+9+97v44Q9/2FP8T33qU3vA5fWvf304G2KVAYRLL71TWamKcOzrxDWXvpUoZB4ZGXkvjvLmdfJE/QwI3GOP8TkrflCAQI4PO+yw+MlPfhKDAATG8t3vfncvFObfznj/8Y9/HO9973vj5S9/ebzrXe+KY445JjbffPNeqdWLX/zinmHNNp57uI1tbMuOLvfWFVdcER//+Md7Wd8AwJ577hm33nprTJs2Lfbff//eux588MG9nwHOn/nMZ1b5/lxpuuCGGyJUVG28ccQGG6y0x3TpmFd95c0XxC8vOiEuvuHsxlumTJwW99nmYbHfVg+O7TfeY7UPK/R7GYyJ8xHOufq3PXAk/NDUsAa+VrnTxvvEjCnr1Z5aWAcQ2ij8Luszlmvs19yzTf30AwnLAUI/Kn+8aZDMRWgCCPnMfKGSkhnLZLn3SU96Urzzne/sMQfbbLNNXHjhhbHrrrvGIYccEh/72Mdihx126IU+VnbzTmji7373uz3v8H73u19ccsklPZqYIfvRj3606gCC8lB/VG2sxMqNlT2n+n/Pe97TY2AAA7KGMfrOd77TM6Tve9/7Yt999+0ZIOALgzSWNihAsOYAAuPu+UIMbe2b3/xmj1oHEE466aTe+DfaaKO4+OKL43nPe148/elP78kQz/uiiy7qsQgf/vCH4yUveUnv0BYtGYpBPfu6sZXKJvdleV0XgPDHP/6xFxLZa6+9euyAfWB9sCEbb7xxj9Hze/sRcFiwYEHvIzhHHHFEHHnkkeMG8Nrm/p70e2s5d9Gcnkct9PDnWb+MP5zxh/jpZ/8S+z98pzjsRU+L/bZ6YGyx3va9ksYpk6aFTzyvyQ2DsnDxgrh9/i1x9ezL4y9X/Sp+dfov4nv/dlo86Dl7xsMf++DYZ8tDYvuN9owNZ2waMyYrF76zWqYuP64OILRR+GXCb+6n8WDry3XpenhS3RHMdwtAMBFi7nU5CF0UzLBCicJnjH0k6vvf/37v+Tz2efPm9f5tgT/wgQ/E+9///p4SXlmN0frKV77S+0jVAx7wgLj99tt7Y8IcoFr/9re/rVqA8L3v3ZlN7etjvgq5Es5+WFlzWfZ72mmn9eaV8cXIMCrCSeb2uc99bvzHf/xHDyyQPXLGM/UzgEwcf1C6b1CAYKyHHnpoK0CgNOToyFPYaaed4vDDD+8l1IoVvupVr4p/+7d/67EIAI5rXvSiF/XCCgzq7rvvHo985CPjNa95TS92//a3vz0mT568vMxxrPHONgbBO1aBiPfBEvzyl7+Mj3zkIz1WQLgAKHCCKsbD2LEEcm+M3dxav2OPPba3F4Ede1Uy8dFHH70qxOke/wxhT5VemB6hV/pzn332aYxZr4mTlvJ5wgkn9HSw/TJz5syeLuYwZgVfuXfqqPumKgZ7IsNz2V8VWFfnzrg8czzORWiqPGqqaGgFCOmBjBeqSeS1qgHCZZddFq9+9at7wODcc8+NE088sadc//znP8fpp58er3zlK3thBvTv9ddf31NgTckbw24EfQspXHnllT3WwvN99trPMBlPfOITe+NbpQyCs+ElTDn7Yfr0NZJFYOyBgC9/+cs9oJfzJ2REdsXrGaSXvvSlPeMrhHPAAQcEUAEgkg0U/VZbbdVjGLq0YQACBoHslSGG8lnA4u9///uePJAFIABD4J0AH0m1QmQALYMKAElq9X5k6nOf+1zvdxQ5MIRJkXwrnk/xjXUft3kjJcAHxhkXe89YMAbAgUREDB6gY92+/e1v91gBoT6AQNhP2ERfJUAwT9YYQ2Kd1raVOwNYK/lRQnXyROwTQO2FL3xhD7gC1WtqK6l3bLYQnT/sE/aN3nB4HxuRib/Vg/yqRncsZY5t8zjWIoG2fZt2vgpGVgAITclS40FPltRMCRAgtUw+WhkMglLGT33qUz36Xu4BpUkJPetZz4qrr766JwwSxlAsNgLj8rCHPWzcqUwhBH1bLP2r3qAwKW8f92A0VFYIe/C2Xvayl7XJzdrf/4Pus4ZTpkzpUfjnnXdej47nid52223xwQ9+sOcZUAoMKGDGuKLvJfiJ7QNljBVGB+29yy67tAKFF7zgBT1ZEtZAf3dpxgekYjWe8pSnLL8lFZZxGDuDbwz+b5zyDcgn2SCzBx54YG/svOobb7yx92EYfQA88jCATv8/44wz4i9/+UsvL2OTTTYZ+lsMBtollpn7l1FRcQHMkPEnPOEJoXpIeTEjYx9KtvzWt77VC/XZD/4vD4hhAs49T9jBnpCToJlvIYf8EE6XOV97zXAz8KUvfakHPgFm804egVdAmu60bwZl3YYbyfjdlTR+Gne6WIiLkwjw+Ll9/YUvfKEHaDfddNNe+LfKItSVJdMf2GfzVX6sabxGPxaQkOxFW0J09Rmdqhi84FgGV05QUjMlQHA8JaFLFDNeE5r9MBKMBo8R0KGopk+f3jME6H4KlMIyeRZefJcyRi+NZ/Mcz+MVYg40Y4I8CZcNaHw8L0oeo7C2tc9A5nPYyDY5hkCpHC9aM++M49Zbb92bV+uPMpW8SC78edSjHtUDbpJY/X3QQQfFjBnNpVsAHtkaFCAw+AxgHUPF+JGBjAf6v38nss/9k78nr4wxdiCV3/z581fw7tD79m/eM6xSr8s5qK5O9k3Ojd24/DHOfJd8b+N2XYZ3/N91rs+WJzfm+2deCTC4tq3cGUhZLM+wSE+UPK2pa1DKsX+TQX+TMfJGHnPPVHMIyr1T3Q/+b+/R4ysDIFjtujyBrlIwTEVD54OScgLHEsNMFOOFyiTFri+49rq1M7C6zcAG/5uBPghA4CHLPUnlouoAswSgAq2ajYyC573xYFIpzZkzpwd+/CzDIBQaViErM7Jf1wK66XnrlyKUIIg9kQzYFSi0AQNsnGehnbPE0rP+8Ic/hPkpq0aAX4mHGJBUdpSqPrwXtiAbRsH76iPnxu+AMqEWz1vbVs4McFrIB2B91lln9SpMhL+sh4ogMuff1lFyLJmV/zIWA7Zy3uRO5qvayCCAI0+H08BZVDVjzwkpkD0yid21FzkX8hLK1m9f2APY3/3222/cX2ksVRGl/TWwLAYAAMvqwFIvdAYI2eFYEibKzE+KLWndchbH0n91NSBglL7FzxAG7xENKxkqm1IrOQhlTI0HKlaKmi2V1iArLmbHW6TMZZsDVyoo0HNZhoZOpvzQsAm+hDlQXujota15BiQjEmgUdSqnuvkjezLgIftsmbAoL0GzgRg69KIkQH+sCUUhQctzXEupZOMNU5gUSJcGGFM+2k9/+tOecvUcRtv4jVP+gWc+4xnPWOHgIyWxeW6HfeIPGZO498xnPrPHwmWVkP31yU9+ssdCCVfk+1H8QApAolpA65eXUD1DpHw/BkF4QH6EZzMUm222WU/pChl6N3NFznP/CIfYD/bUve99795zPUPYAXDwvmX+h/g34yTpkuLOZn31L0wDVKxt4z8DcluAAuukvBSjxjMWpwf4kgX99KddHR2cAAAgAElEQVQ/3QvhZWhMwixWtCv4HP+R/1+PZdw9x2NfCAOQVXIoF4kckiXvQWb9ThiPHMtHwEDSx5KFS/nMvVZ9BzoByFgZDMtYHfW6MafNrVuzFb7FUBdXyZfP2MWwoYa6gVUR2FjQUZ2giZeJYUo4hIQ1yhTCUwqXTXyXciprx41XohTlpHRsmPa6172uB04IFvDBOKFPJcuZRwmLlKwNVR4As8qTFId5udXgHiBO5rG8AQYvG6Nr41dzOByGZe0pAw2NSPlJomNMNevOQ5UIpx+Z3DY8o05RSKxjiP/93/+9pywy5j4Is8YTkwtBCcl90V9uTjkD3/jGN3pJk2Lz2XjZEmhtZsmL+VzvIDETUyDEoqViBDKAX/JGuWfDLnhf70lZUmSZyZxG27W553Of+r98Hid++iNWax/x8M2R+VIFxHOSTIilyHmxD82le4w1ldJf//rX3hoC7FVGACCyFwCZUtmaP8CEEla2vLaN/wyo7pGrA/hhvIA7OT3kEyhXYgsU88TpSdUy1psu9TcQOp7O3iBvmLkypdza1+RGaTF9IcEY+ASE7GV7RbIsgACMCoFnbpxcBCfcCjmzE2WreuXlvqkbc+7zNlau3/vm/cPObZlH1CVheTlASOXYVA6Rgx4mYbFfFmWphIb5UmS/iUR/yYBGEZVggCIi/IQ4GwXLE0lPK3+O/iVQvMeume3mj5cmc5xig1KhVpnrPCI/R1VlAhYFKCu4ZC9sOsyHpMW1rX4Gck6tUQKuvLIfwAIoPvShD/WMfB7Zax2U2FEeGIb0dv2ct66sEJMjw15SoPX1cwqRAZecSHb0l159P+8J7U4ReT4vjDIq4+0MLGVFRpx3UAJ2YELCn7GUJyUaJ+Bgf0lMzJYfRzv11FN7TBiwypBnw65hUChJZYaUX53S0T9AASC5nrdv3PaKPeE5lKmf87KUxXm3BAaAjecbozFgSrLZo/YWaloSY7VJjDMnQEW1AYDJpliXtW38ZoD+YhyxchgospKZ/WTbmsnhybwt4Qalp0pWOVQcMxU3Qm8cH/puWIM27FuV9sa+Iyv2D9Aj543M2meAuv1Lto2RrZB7BHhjdwFioMD/VQdxHACGstmnnlca/0EZlBLMNL3zWAHCoPM5FEBImiPjFv0e6rryTxMqKvsc9CWq1+sL6vUn68BdwwhAvoShbJQNRVRXNYBSE6OSBd/mJaJ7IW0H2whZ8JQo0N/+9rc9JgMVC7BoKFWeE7q6BDB+txYgtEsApYSuBvhkU5cty1irBxExVhSfJuRTJr7pS58UIdYngSvjSF70qS6f4U5DS2ZkegMHQkTOUzCWBLqlkgAMsnwREKFgy98LbXz2s5/tyUiyIcm6kWfJk0Ajea42Ca/i/ViHbOkpUHBYKrILrJaxfEpNtQxDzKty3HkCFnJrzGSf4fcMYAnVnMlccieE7LAJ1kGopAQ87gUOnOvh4KMSlBtnljT6XdWAGL/scv0D0NXGiGEklKKhwde28ZsBTBlmR7UJ40kWsAfANWNvHwHGWCJyo+X3M+gzYA9o43hZP2ASaCzzacZrtGlf9Jc2JP+dCbwMPQCLNQBigAOhXuEQ8sz4C5VgijEm2ewLuth1GDIg3TxwKEp2L5/XxdalDakCgvI92uZmvJn2puetABBc2C+uUtdJCRBKZZcv3/Wlky4dFHX1ezFlXw5kqR45K27JCFRL0qBLih6NVG02B1CBCm5KOhFbBjQoQ14eutT7+z+jxLiI2+U72oTK3Qhc6dl5vnt4XEDJ2nbXGSCjQgNq4TNckFf5HWpaiZ3QTrVhcRha3kAJLHjITjgUblB+yKPWlw3NkLqPsUN1i81SjNbS7xhKsiWHgALl4fNUKBXei/FYb7IEOJZG2viAD14ZxVqW7yV9aRwOSuJ9M8JlMwbykmcrlL9LkMDQAwkMqXGViWQpo/IehOGMwXkK3omHD1RnyaX7XO/3qGZzxeiT92rFh/elmM2Xdy6BgzGaEx6duG/dB6YobfPt75IZKd8PMNGvMa/JNfmr2x6ne6w71sz8knHyycgDZBrjaf3oqAxfCVlZE6AUuHA94Eu29IMpcv94xeZTvssku5I257BxwiS0yvsSOvBe2A55Q8C4JqeFrNHRZeWaPY+B8y7J2p1yyik9wIx9yLB1dc+V9i9/V9q2un+X+Xlt8nC3AoRUSulBtQ22OgHl5HQ1+MPmNfQbmziohXZqXTkG5/BTVmU8Vh8EGhquMgvZf8aqxGuryt01mUvAC6JMCZPnAipivYxJJry5nqFAi6O6qgbO7/vF0LuuxT/7dYy/eKHYZ3U9GGTHDisbhfyrjdIA2BjvVIB5jd8pXeQt8zaAvFJ+gAjKgdLLw7TSk6BEecxYK2Ow9oynn2OLeOcAYjXLm8KhnFCzVeNvXO43LrIrNFFHpwO9AAqZqs5HKlEyTFnyxjEd1eZ9AGFj9k4YDt6Uf+eYsSnYMe8nb8I76atk1ig6BiY/huadquwAhcwbbfouhjkDeuyl9FKrY3YIk/MvvFPXJNF/9r0x1vezfvaHNbc/NDKEBQX6sEjZGE8y5QjzzPAnG3IU7CFAGhDHOACE9BovXN5IWV0z6JhTpnNs5f1pPIECjJz9YgxYQe/mpFVjJDNZbgvIZtl9uX/IIJsgzJJnIQCs2EZ/y20bL7DjHbo653crQBhkoHULVF2stsUfb3BAkCWeoIHKxWaUCSY0WxcPo6Ap6rqWCFp8GugoG0MgLiXW5iCmkkaVQ4DCAhpKD4rgQd7izdXSGX2ry6fwxWzXthVnwDqiyrE9VaDnSpufgmPM6gCCaxh4lCN5qPYBBAgF8LidooYyrbJj1ly5ILCAxaAo0oOlvIAT/TucixLiYYvbV407A2esmCnGti6EpT9hACGEfp//lodBXshw3dkdCfpR9hReJmSaC8wXhYcNAGDIqWdR7sadY+IxCgmYM6AAm1H12gEZ85ZGgMdYfSeK1XuI62Iz+jVzbKzmRT91jUKVeOq8C/Hyrg7J2j3Vfwbyq6GAYX5h19WMOzDG+cpm/oV5hBHK0JefA62YOuvPKWNIMQzAvT/YKXIwyJH21aoacl1dc/+nP9kAYT9ykXYAw+vZcsOyEkl+hYRXejiTf8v3E2LG8JZhYODDnpHUXg0Pt8lW3ZjTjjYVCVT7XVXlpCNLlixZ1k8xlbTHeGy+MonDC483EmI80EbiSXnwUk6sGC76S+ihrjUBBNejXAkd5Ime0nhCjIM+IeISTTIujA9qq0qvUtCUbzUmm+NaW8XQf5vlOfwovjqZtOEZMmAOkOhnWHjClFMJ3tIzyQOT3vGOd/Rkqc7jtjfUTTPe/vDeGVh9kBNMhLAU6h2YoGgwRumB8diFDQBIYYWmJC5ARz5F5q9U3wkgARD8vulzyMCTUBoFZ7yqasgwtkRuhfIugAYTopLCuxgbsA3E5Fcy65KUk13gLdoj/c5ZsH4UNiXdpOSAHmPAatRRuTkHDBf6W6hiVSnNNiOwJv+ePJBdhrUMwQF91sO6kZNsAIU9Qj7Id9mAAEDZGmGL5CAkgMYwCFE4oEw+UJe163JcMFbDM8mqvZClw8IFfu55AGXaPO+F8bIP7YHUKenNA9WuoSfKBGaMHIcSO1HnqNTJgPHrt5qMnwC+i9xkWL8tH65LX12u6QsQ3FxFbF067HJNvmSZw9DlvqZrTDLlI57JKFeb8kYKtN8RrZLTUNZlhnjZh8WFiCXjME7QKDRN6MocAuOg+ClZJT/VRoHynCDZfm0tQKifGR637GiKqh9gxQBgFwC2pEjreuPNyLjn+aAfrVue2pfXAwA8Zs/rd6ys+yhABkrMVTIqsCnPpQSGvGvhB+M3LvFQHji5a1KODK/r0aD9WmZcm5N+75xKCGMgGQuARg0rsa0CWNeiXMk3NkG+R5k/UyfTwBD2Qt5Hv/fBQjA+wElpZOreC6MBaEkma1OGkjMxctVk1bHqlHvi/cIIzomRsF2e9Gm/yJkyx5mHkPPD+ALAZDmdp/ydPYUlY7jtCTo4964+6UrPpCuF9JrWugkg+J1wnfCi55TsVYa0MLzAcKk7gHcggAzZj5lzlJ6+/B06HrtQvpvfY8uAcwm6bWflJDgwL6WRH4Q1yDntAqbGS3ZHFi9evCyTBOs6rZZwjOXBmdcw3mEFYxKvpEQZ+SptZTHRXOKe1YTAfB91uwx3v3in6wgaOorytOC8uvIAF4oaGpXAZRxVxasPIMb4qvW05byuBQh3lTLAikGTQFhmGlevBBDE6iXk2dRNDT1qLfNDXa7NHJq8j/fA+GOmeBl1a0rRMf68c0CALGEd6g7xcS2PnDLj5fBohCn6yaU+PRPobSpBFvdl/MsDwLwDmQR0AFtAB8OiikJ4i1enZKvMG1IdIHNbbBmQUMpIpoFiYYeSJaP8hWsod4wYL6ufgs8sd56peG4bI4m2Fi+25m2NN4r+xoi09dvW1z359+RArgBQKHm6bPQdp4gs5QFbJQhgRBlTieFZQpy/12/mK9B79m+CjywbtmdV78hZYYjr9lm/GL09Rf8DGoBihg+y2kZYmZxWwat3Ag6A0QxHliGA3Bf2s1AChiEbOXM/3WDcZL+f7HVhPrrK3cqwnU3PHlm0aFEPIDRRnEm9VpVnY8cjIyso25y8LoczdJ2svI6AUCaZpV1VUuhcyoPHWBXe7INCZISqwl8KuextcWVGxQdlSuqZEKSHJN5clzSF2pVXoPyn6UuRawHCihJA7hgpAE0yab81dJeEUwbLhlbSVK6ff5ebmDFH+fNS+zFHni2eCkwAj4ybsAEZQ9ljD4AD2dGUH/pccpRrUJyS/dK7oODELsVIGWc0JaXL8+bRoyrLw4L0L4QFVIqRNika/TDucmTIFlnGUpF9Bl/+A8CUTIjfAbveH0ABhJS2GZPnUPQZJqBAKUJZ3ioGgAbUMnmnmPVRHqdc3b/mhrdF6aOT65R/9R5eqRyEurLO6rXm1b7N5ORB9cfa6++cAeAR0AT86pKnq2V/5bzJGRHCzUqbOv3GSGOjMl+rBNCejbIXKsPySgz0p7RLdfKvz6y6AABK3WCPYgiwCvR11YCTYcyHXIWmCjWhEGEu4KXqvXtvjieAUQIIc0N3JHM3HsC1zU6vDDnuAQQdd0Em6cE0eTLlIE1OGusmlmIsL0ZoCJYxUWB1QIfQU5SUU7+sU1nXQgjiztXmPRhtgkZpio8yQJCw9/N7OQ4oOEgSvV3nSfEGhUDErZraWoCw4uzwTGxkcy5+2LTZbHpUJ2XBoOcmzb+r8XN0qpwFALKf9+tepbDWnxfN62fkGDCeLkUmrJDKCYvB2AIODDtmSkITReN6HnwyT6613gw8FoECAnQBC4bdM9KLbspy5j3lNw4YeUAJANInxYbSL9/P7xh3YRuK2rwx5BgaSr46F8YJ2DIegDG2AlDGrDRVEKSXBpBgN6q5QXX7wHw3nYFQd4+EUYZCpdHaNtwMYAc4SpITyV+1Kae1X+g4YblqI8fkNcu860YhZCbcq5HLqlElV/QwZ4qsAAspM1X5F84zHqCXTq2CEnljwDrjjSkji2Xzvg7Nq6uGKq+zr7DTWDTgOFmGtGlsh3eSlJ5hiGGc6rZVG+aAwrY+236/AkDomhOQyrYKBvL/pQLv2mfbQPv9nlev5A0dKk5a1yh/nl8a9LprKEdenYSnagNAKCzCCm0SCMpVPJmnyIChOCFj8bk69CwnAfuQHlvT+zJGBLKujn/YeVpT70ORA14MlPhhXZlp+W4MHe/X3DHMJZitS/ChNGRTyzWoxlar8o0toLwYcZQ55SaGz3uuAlPPpeyEm8gLhQcs9Iu/M7xkGV1OcbmXghMLzsTDqtJJReVvz3EqHDbCH0bbfsAc1AGqBNbAB9DFA3d903kC9ghFiAUxt4CO5zQBNqyGKh/v0cQylHNt7jAO5qtrlrj3EUe2J+uSStdU+V+V46ZzJNxibepYOt4ykExe6nQtOaQrMQ089n6sdObMALX0KaavBKR5tgiZxt55Vp5ySzayUgnYFrLKEx3LuZIbIFFcaE7ugVYFGMAFhqEaTin7IdvYOHIFfJqXdKZLuTd3bIKE9fxsdLk/B1nHZOrL/u8OcGDMywGC/3RhEfq9aN1LDTIpw1xL0AgswZU5XUddMiyqBiRv9SuXymfzhii/sqHEeFlQaHpWBFQcmYEgfM67p/xk8fZjKMR/LTJD1HaoC9qM98nQ3dMbqtkai9d3+fy2zGlUunUr4+s9YR8Z6U1nlc1Codv8AFxbXbOM7TwemEedBwQlaM5n5H6g7BhVpZOYJwwVpdavAQrkGSOF1geIKOzMjSlBgn8Dp2RR838smv6bwjC8OGEY1wDOGDb7p85rLMdJLil+YQbghQF3X9NnseV38O4GKUM0Z+bZPW1jKsfnPXh7aw8YG05rkDf7R35KXbMuwgjYKCxaXaOTAVWeNiavX8vjjwFBrBzmqrr3sFxAgLwIa+voZswFXSqszGEQGqxj/rACwgb65bDlvswwhf/b8/Rxfha+adaEEegVffYD3MLc9hbAkY7JIGH5Ukflfk5dNR4himGkYgWAcHcPZtAX4JWLH0tw6ZfkhepFPwIIbfQmaswG0AgS1CihUFZsVQkSUMJFIVPimIF+eQXQrLI6Cq/LJ0ApYmjUGfRt2bGDztmadD1wJ/YPUAFvbZvEmqG9zTOgh/qvsln5/mUuDKUmhAHA1VXAuMd6A4JAqHWhBI2L8S6VQHWMsvYlJOZaMnzCXSotmmrAeSSUI++KV2YeKJ48VZDSBDbkLWC+UnEKZeQpj3UenIQrsoVVA5gpZeAFNUwB9wMWvEJsg3GQSV6VOfPzTKSsypY5ojC7HFNe3gskoWt5gIPUydMHdIH7mkoj16Q9sCrHCvxJ8MNy9Wv5zQLOUL9cErIhnGRvNOk7+wYgAXCF3DBAdQA9v2FifPYEQy3Pi6zW6QQhQ3sMa5XynCCizAkAMNJxa5tnDLLQHdasX6N7hDQwfvZt11B89lc6F8Y5nt8manu/fr9fASC4aCwswrCDGOY+kw/ViddW62/L/nifBAxF1ea5W3zlWvqmQAk3IarbCPnZUB4LIeu3WSw09IuSlgNRdzBS9f0TIEhQ63L9MPO3JtwjmQ/7Yy2aPPuMLZprm1QoiGdSrU+2AavxQ/NgvXnEPH3GrDyfIj9L7hPQaPWMdeoH4wD8qWbJ0EeCBX3mNzXIXsZa/dxhXp7FuyG77i0VnWu8N+9e5YTfoerdQ54ldFFAgEF5JjxGQxlZHnCTNeCAFkABnJBnclgFs8rNKHZAt0zEkssghCe+jzmpHvakX3NGMQJkuU6oW4cYGdOgZVnm3DiMaZBm/DLWNYxTG6AcpO97wrWMP4CA9u/XhMCEBhjppk9tY8EkFNONbTqMfpaIK4QHhHL2yrVLIMEZBOaFujgMQoJlCM11xkdWART5AJkjVjoE9IWqCjkMEtebWtpDe0gSsv3XT648H4hQ0eH5eVx7VxahGlJYHWTuLgDBoO6ueMcgE2JxLQQ6rF9yGUHg5WAOePptTfwIfYa2RW32Q8n6zQ+AUOaQar/8B56njUdY+53BsBYg3HVlKHseLSOanzGuXlWXCAQgiFvLFWhSYCVbZg0ZQp41ZcWIZp4BZciD57EIWZSbmNKgAN1LYeXz9EfZqRJg4BnzqlKhQN2LigVE0ZwJMuQiyLsgs8AKwEgmsRH5SXIhCFQ/2aaIKFXKy96V/MVQy8cQorFXNOxIv5wBRpnnLU+Hcc3wRX7uuu57CrkevDUVBN7Vs82h/1O+1Y/atO1Bv7f2vMm6fKC2+yVDWi9ecN03Htruvyf/HtNFjzXNG48flQ4gVD/PXZ073zaxf7K6oOmMA/Im/4G+ttcAansDIJDDA4xzmOSaAcsSfu0zoN3ewWplKS8PPlm0HJP9l4yaZ5Fnerv6ZcbyHcp7/FyejqTGKjtV6iFjsg+xWUACcFSGG6r5e5kXpf/q81YHWbwLQFhdqI2myVGShf4XM2tSQBQXQ6GqoMvZ39iDPGOfF9bv87eSW3gqShYZJMJqPNUwh7kk3BQ74e53cuJagHDX1c4jXFHNVeNa3XDl3dYDsKOc+tHT2V/pVTCQmRwKyFFCvGCGVv5JP+odhU4hkBsggQfmPuVaFBcjXlWMZfISoEmeKFuMB++NouaZ5we/yBDDLe5LERo/5sK9ataBWRStd6DAvb97lIVmyIXibyqtNYfeBYvm9EIhNXMoDOFjNW3JoZ4DCOsD+KGgAZxB2QPjkPMjPCG5cdAmudM4zCVjsrZ1mwFgF6DtV+advZBdYSoAQe5Av+Y6siB5m9MlHItlLQ1i3b2YPACETAPOWDjJivKxsGOZQ+Bv4WNVF/YJ3QpE26d1pbSlQ2BcrgHC2w7hKp1loQu6J88aSWOf+ij1ir3pWsmy9o73LoFBMgqlXmsbR7dVHP+rahmE1TkXwWJIsJI9TuiaGiVJgarpbTLOkmFQpBSqkhnUbT8aKSksz7ZBKGWolyGpxq/zw0B+11baWL7HPT3EIGlQkpHQQhr53GBVBF5df4YKpS+sU0dtJiiorq9+M+cBTehsAEaOYW3bvDx1Rh31DxRQtAApJqPpfJHcZ+QELcoD0gegwiDri5Lk5dQZaLKHbqUoKVLVD/6dn9Yly9iLpiTC6vzpR36EhFwGFnvT5dwC/VCMPCyeIK9RvsQwAAHwARKaktyaDJO5BFLsuUHeffzV65rTI+aFrlTK19accGlv9PvuR+lR02UAG3BLZ2tNZ+G4l/cth4gsClsxyFlWWSYZuhbbRN7keNlHnDzOXXV/JzDxd9u3Tcr3L22hcWHZhM3akhABHSCBDFZLOdvmd3X6fS1AMMDVke4wLouLMuVZtmWcizOJY/MA+ylqniJDhLpl8NHMqO26JkEGYqU00Vg8MkKKTrYJULMUazZZ6xJwJJOVJy62CcA9HSDY5Ix8v/KkpvkDEIQlyEkaJ2tUV5pU9kPx8FRsauss3kmhdY1jU07updiMHwvRxTimh0JW0agAArkBasXhm+K33ivzL8gMzw4bkYcuUWb9vt/Qbw7tBQwIgCS3oClMU+0DnYx1oBDVzBsfZm3QZh4wF3Vft+zSF4ZR3gQGI0MyXe67p16TVSOApfM82howAbgLm1ZzZ9I7zr+BWHtRuSKvPeUpDW/dszgIcn7sWd5+WSLLMFefAdDLYeCtC6kJkcgXqNO59pucISEoHr7+mvZ4AovMZdCv3Jjyuwx175D5EAA7x1G4ZE1sfRkEQtPVc1hVL84rkHNgwtvKnyBLnkSWFtaN0cEeqEw0MG+JByRTnQdVbahLyNGmSLosrxFz5TXyQCXmJBhhMGwQlO0gjfdkU/HA2hJ8Bul3TbhW/JihdjZBUnOpFOqoueo7AQjmLePuXdgw/Yt3kwdgUhIhqpKRbqPl8/kAAnBgzACjOGrdYTLleDM5yzvLexDDBw6wEQw0JkEmeNNBRAAFcCqMBaAKbThNkUIT+tCfUFhbKZf9wnvMr4/qx7vz3ppYkHwfe5MXh/EAjuTe6MO+sMe6htf0p1oDA9EW4+4nz9bTWNTHr8ne26rar8AcOcMM1H1OvDoOssJRIm8Sv+tygcp77A2VLsLBWLUsO6wDCckeYo+sHV0oN8y+JFf5LP37N/bO3sEA658cqlozPsCiGmYyFsBXwq5xVA9PqpvzBBCeJ/GW7cl8stRJdfeRQ+XWwJHxrYltZOHChb2jlsvWRaneHS9LiVPcDEAbeyAmLAkMtVV3/gE6jdBSgOK+FCo2AQCp1gGnwmF8GK46hYkeZiAIjsoKgsOTzTK9QeZLXwAC4DII8zDIM1bHa2124SMbu/xwS3nAScbv+6F2QC4BQpdkWxQ9Rac0kmFi4AE9MU+ebJdEN4lU8mHQofqi5HjOdZ+kLkMZcleARwoOEKS8GHUyLo8AQDAX+sQmlKEO/WA6AFIlvIw75a76gTxjP1xDOfkZelTdNy+xGjIh957DKKfXzgtn2HmUTQdIWQfrk6dK8s5KfcK7w6Bh/IyrCyND7iUgd2Fg+skxihdA4Ux0WcPVcT+sqjHJW0GFO82za5Pkp+IA8EsmK/emNa4aTntbfgtZKA+ySmbP9YC5axj3EhRLApbDhbUV/k2v3z1+DoxLViyfCaAaH0ZBHgTGw7iAcaDZ+R2eXT08qe39gSnslJLLaiuBRAlghN0wy4M6im1jWRW/X84g5Ms1UT+rYkD9niFUgP6nPLrQhpQnj1+4oDTo0C86F7tAuKDBfHfoE9KjjNMwQ5gSHRlsCr+JVaHU9IGGojAp/C4xveo7AwioWpRZ9etod+carMxnZy6H+ZUAxTMpvfeylLFpHBQDJdSG2ClFngbQKeO+mnAlgQmjwOA1eRXWGBAFEoBNxp2ici+alAHXNwXpj3V1dkB+qAkwyJgsUEuZACp5ZgeGAPB0n/M4KFfPlMjlHfJrlDlG13kOOjeBgLnjifFm3AMIUOyejQKl8JwBUs23kCiJmZC41iSH9qa9geatUqnmQvjDPGMXhI76ne6Y7wCkYFHG0jyXEl/TY8BjmYOu95JVjEseuNXlPvIn+TBPuizDXXUAQZ9CE/K1GO6SqbBnAWPhMSGuuoRg+sGeBlyBE6BPX54LIGh1eUUAsj4xCQCqcQPUcoRynGXYou3d7S1yRd77sYvl+7M99jCHgX7oV+3W9ty76/fLP9a0ugIDE5MfexH3Qfu2JY0RGsKIZi4PtuBdAhlQpRhU9QM9BJVXx2viDeoHqoZAUVJthxYZp4NaJPBQll0pu3s6QEiDCrQBgOX5BQnuMimo3+Ej6b1YQwmOjGFdY8iFAHgS/g3V1316mELiZYjjA6Sld5KKyP3AI+PLUy37oRTE8hlf9L7wlecCjximTDos2Tox/PywTHXsZBaQkYgIPPGkKL2ql51nL8iDqDJd3gFbwBgAI7Lv9+oAACAASURBVMbAm0Ln8sDqqi0wYK4BmuvOEQFmzTcF2ATcjVtf3herZ43r2AQAHqOS5xmMRTGaT+dhDFMNMZbnrmn30m+M8iCJ1EAhXeksmmzVUGDdPHgWGRT2Irv2DplnbO23phNA7TfJx0KQ+f0Q4ABYINtlGWO5X+09zpsx20ccCKG0lPdBWATgHLNGhqtORQkMqucJAeIO4eMwDlP6e3fJ1MiSJUuWtRncu2twnmvxCARjz+PvckKae4QPJGjlsbYEAzjQ0Md1sX1Ulm+Xy/6mMB13zGgR5rZTGHOOnEonRCF7HNIdpt1TGITcxBKRxKp5n9B9afQyTODaMv7Yb171JY+k7qM9AJz1RD+rDGBgGcl+MXYVK+SIV1/HHFFsziMADshMNuMkrxQSQ+waCZfYhLIaIQ1kMghira6rnvvAA+fJezcyylCTX0qqmknOw6EAzUE/ih7LBcAKOwDJlC35tleq1RKUsvdH0VaP/gbGAGIlmG0VReZG6AbD4X3MPzBYbTw+4E6sd6wNcwLYcBKqh2aNte9/pvvF5IVO8zPJXd6NXAC79GUp923euLwbHrj8ArQ7oA5YYo3yZMQme+R+wESioH3nhNJkrRJs140hzyfwPM4feRYCto9Sr7QlLHpPMpVfTq1+Wr1MaKzOIYdByAvYVg69poSOR5Y1ZVl0kZSVfA2FKDubMqGIujTeH6UgvGAhHJMprEApNR0RSugJECGUJGZBoequH5kxNiwFihyYGaZMSx/3BIBQehs8vfweQF3WfFmN0KaAGCFIvXpcLE8FRSm3gQGmnBIY9MtVsDXkFtSd1glooEQpqKwU4P1maAIlT/kIYQEmPJjyozMpx1ktRIGQF6clpqfO8xEm0yQ8isH624efhEfkKJBvLEgqSWOW0EWB1lGg7hH68E6y/F2vHBh1K3cCUBCeKM/0EJaQG2Lv5Bn81sEzKHPAoUsiYypYz8t4NxBdliKSA0yLg5LGownnYC7kk6xtd50Bus5e4RV3TcjNXnjvjD1dma2LN45NwnABt9ha+TJkPj3wptN8yan9jc2lr4FUskKGci/1G4O9hOWzh8ggY+3ZQrmZj9BFRrABgC5gVSZctuXXyGEji+bLM9vy6LqMZWVfs9oDBBOKkqJIugowI+0UN0oBa8CDo9zEQJsSnwiWRBnKnIJUT0spd1V+Fks8modGAVLEg2Rv52LfEwACEMc4oezECCXC1Z1+Zk7K8Ff5TfgMK5SbRH9kpkxCQmsKOQlPiT1WM7WbFJKzMST5KXtMowkcYDzypEAbH5WNpRLnBBgwCgAC2TFOAEXIiZdWAsd8NmDhWfIPAA3sBFkkg8YsaauUXfOnT+8FAMtpwFppFBcFXGW9GF9/UPgAQioo4wPE5e0Yg/7cW36emUxixtKzx64BKcBIXYimTXEBOc47kMQoQTJBFkOVB8y09dHl9xlGwnQ0VYN06euf8RpsGrkUJhpEz5kL+4pOlr+SrcxF6Ddf2Cuyw4uXQ1M6BQkS0thX97YERnsce2Ftyap8L0A+j1Z2b6kn9EEnYzs4mdgLe8x+lWfjgCUgm9PQL3+iHId9JwRGn2Dg2oBBea/9lexH0ymOq4usrdYAwaKikQhFl/KbnFSCAKWKTVGgEGa/r35VF4LgijtT1JiArqBEPzxFMTleJfoW0ED1DtruCQAhUT5DIwG0SUGVyoICYhxLRVJVIuad0iI/FAfDgNEhD3X0ZRM1WJawWlfVLzwR4+X1SOzKGm/gwDP6JbKSD+PhwUgULN9LaAV7AGwwxOKbqEjGtwnUGl+ePmc8ZF3eAxo1w2vmmjKXjOb31fr1cv7MLeYiz4QwdxI1MRVCLlgYITdKmReEFRlEQZbPouCxMMZrnwvrqXbgmXb5cmfXfQWICP0BeWvbijOQ36pR+TNoqJmxw+5WE4L7efBkSwxeSMF+xNAKiQGI/fZleagS3SxhV/gwWSd9Cln5GbnJr4amnkgHg+zm8eTptLkGUFCZYO+RZWHANs9eqA+DAOw3fZm1TtY8Eyiho+iQ1f0gr9UWIFh4ysyCNX08pG4RUJ4ABUUtHtsVXECm0B2Fy7APAg6Mg2fJM7LZPJMi5dlRfIM0cWvIGNr9Z61ioESEAxhGm77f1zhz3sowANnQ6hgE4Ap1yIMQq9S/+GbTWqaB6+dBobwxQ9YDWOU5AKFAIE+dYsmwQFvEjkLKGmzKUsyfR4LmxaAIAUj4U5o7iMIWosCWMdz5zQj9UGbO4wCWPG8QRstYAQUgCMCWGClznHJTUYFhGEspYq5hZppbJ0wMBmg8GxCFtbGn15TY73i+f1NfEjgBPV51AuVBno2ZlahbLcG1R/NwIXudl86I0435cT0/s9558FwVaJbAHSvMFgDnmIdqsrI9hIm0R4XIGPnUE65l0IXKVOSUz0l2MquR7G8gHqNVfkStdEj8m64H5u2BYQAydtv82PeDMjeDrM9Yr11tAQJky1uTud21Uc6MO88/P8bR9bAn91KwyrGcZdD2nfvqmChiCW2MBUWv5QEZciEGOfAIQOD1iI/VneHQdT5W5+t4j3lOAINb10q6r8z2b6IxeaTW0TUUCm+lbQOXirHOKPNyUN+UE/pbwhs2wdrk5s5ntAEE70lRMbRkE/illHgVDLokxa4yWzdnQIswgNg7JsLf+uOxtVXh9JMXilbcFXiWeAk4YNjk57R5W11lkAEwbsALABlPBiHPaQBI18Ra9K5zOOh11pVusk8yxEN+BwF9khsxAOUJssaRuUJkRY6RPQkAcpbK/uWGqfZh1MtchnwX+4rThdVlTFUf1DEUxu26rByTgMjD93NOA70uBFcenJR7tgxh2j/0EgePc2G/093VkId9JUSRZ5gMOvdAKwdSmSjA1KajBu1/vK5fLQECZMlr4Z21nUaXE0HYUVCUGJo3EVrXiRKbVXtN6aGcJHDVCWy//ih4iS8Yg/TSoFL0KSXq512RIoAA8YoTt52A1/X9VrfrGHKeothwl3nJMqZ+pUk8aKyL3A/0PAXRhTmqUxI5V/mZZF492cBK8MIZ8S5jLue8VAAUHLqTQWR4ya5QS7+PSw26dsYJvAgPUNzyBOQxDMqIVZ9rXzAIlCaAR1kDsXJ7BmE7+r0PBS80BDRR5PJSxjrmfJYETGEWwKaNrRp0vtfE68mghD/MWH5krDTKJbXf9H5yceSvVDP67VchNXqVo8Q402fVfZPnn3iGta+CY44Xnc4OlB9Jqit3tsfsWSwaxsw+9UzhJXuNTSnzZUoGsqyWMiagRcI6kGHvSDYuwTDQIURCRrucy1M3h0AxG6fSxjhXx7baAQSKnifOODtUpQuaJUQWC3tA8UKakru6NsoZY5En6REMTEDX6gUbwUbhoUGdpTGAMiW0KAMTF+7S/tkBgo0BpYs7D8KQVHMR8vAkyXUYF8oBOOQlthlwyiGVYNW4UZyAhnXl7Vs/YSuKA+jIg5y6rGWpdDPmqT+Jt+RFbFRuAPkb1sMvx5EHKymZlA9jzhhH1DoqeZiEQv2ba2weihiDYr9Rujwg80eBUshjYRSAJfOgYgmFSznTAYOERfqtSVaSAGF5uM8g6/fPcm1ZPcQLRs2T56rsNeXllHPh0+TKUuUilI1z5OcAnsoX1UP9vGSVCMJugGEm2uqLl61iAQCRX8AW5F7Nsufquvi9fcpZyC+iYqOcD4IpqRtD6oLyHAXzZFycTnZFv2Q/E10BZOeJCOclYzyMjNj/bAf9Up4wOUxfK+Oe1Q4gWFieeCZotb20OBCKFpXFOMs5kHDS9nna7BdSdD/KmAEnFOgwi9U19wFC1kddRjdBkqHub1R6l492/LMDBKeZ2YxYFZt+EHqtzEVgDDObHpijXLKSoCo3ZQgglV8ZWqAkKDuMj7VCuVIGKEv9ogEl70nIoqyqh2w1yWmGShhV4JPnzaDy7nk1ZIIMidF2Oeej37PsBXMrHwLoME7PyWoHsq6sbJiPIFHgFK88BM1+k+Ohb2Ac60eR+v6BZwyTfJVxYsARSAMS7AU07rDfZci5sr5YKw4ET7QLu9Sme9ak35fAID1nxhf4kmjXzxGrUuvVd+acSf4ERlPn2kdyGwBGf5qYsdyDQL7Yv8Q9BwkZo7M/hCcwC8kkt4XysirI/XKH7DkAWcUR5qgatixDgnXlzoAxWWSTVBWp7uGAYjroCu9M3ocNC9pT7I0xAglNB0XdHfK2WgEEFCPaGSqjdNpoSwpbnJVAMTa8BIlIklW6NEIpNoWOptgID9QqBmqhungarucRilPzXOuMnbgWtMkz6vLxmH9mgICm5iVaLyCsLtGwzdjayBQTY8gT93EiXoJNCvE3Abu6kkbZ2Aw1JZknOTLUYoT6YqDyy52SqvJs+K7ARtyet23tKROJp0ABGhSYBYZRlsCHQ4kGObAm58o7kDGgA1sFiPDikpZl0F1j7ik7+6Tr4V/ixOh5YysNq/2mDh7g4EV5B0rUIVF+5r0GCRGYCyA948Tm2Xoas5wgoYyuc14nQ/aVHAeUcdczVbrokdX9mn4nHNJ92KAubGs/AJEnCwLR1sf6Y4AZO7S5+xjZtnWzLwFYIUfAk26mh8nRICGs6v5m3Oka+l3lkPLjEhQkYMg8hH7jZMhVxglXGFeenCpPTlh6LOFBdkwiMZ1jrG12b1XK22oDECyaeBWEj+pvoyp5eSgfiiNLdCwcpSVTta2hjtW3E5w8KCPv4fFrGIm2BhgoA0PpNn0UJksvKew27+qfFSAAU86GQHNbs1RcbcqjXIOMbfKOKSWgrJQVqJ5Br7Y6YMCj5LHwTtRjU5a5OTFRxll+JImiY2ixTYx5W+IpNsp12AEHd8knKTd/ZkIDqAApw01BovLLkxnbZJAyFbLBcvhDKWNSsB/lUbj6MX9AGpkFJNoOOcJKmGvGpC52z4ijkCVdpvLNsIw8IHvRHHYBChLm7OfqUbRYCvOXH6Zqm4+m34u5G4u93WVMY3nW6nSvvZaVBcYFnNJz9F+XPKd+BlSf9DY9SIbzAKFkfDIU0C8kkDJpXwD+8g0YYnuLwbSXB9EP1X0OtNobEs/tNzlE5fkDbcCguobeQ5UU2ba/6QM6ZKxJtXQE51i4ByBaXdpqAxDQUhQaGr4p9o9Wzo/oYA/KyUQjUTBtdKRYNUXBYMnurp4xPwhAIHSS2JJ67bewniVL3fPaNqQYPQ9QfL7t2lUpSDZHGvUuX0qsGnbom4fB4+e9mpOkGNuy//0e0nZ/xjytfTkmz7PJHKJS1zyPYswPFJETnkAZ+2PwyAagqTQO+CiVjufJd3B2g4/O1KF9TBgZNRaKyaavgkKKFViyxmhYzdyKCysbYwzLKol+74OC1Y/wltBFKlNgxjxjPOoaBsZ+Q8O6jtKsjpF3iPYFxLK+vK4vzARAhSUpPSn7jPEwDxgGQNyhOP0+1iQB0p86ZsN6UMQMB4qX8RjG01Izb3/z+lbHmO/K3M9l9j+QyGPnoTclgpcMX50x9Xv9OJwL8wNwVkuzq3u0zuhmKAPQsH/JI8BY9/2PpjmqhkQAdOMhe0p2MWHJKJD3YWTI8zmomDVg3v7BPHIo2nKfmsbOllgXTmTdibIrUzb69b1aAASCS1n5m3fWDzEynBQz2rF6djjFTmHzNJoSsShmlKV4KWGu84ooNQqJYm+KLVGgjAivrwstTJl7T0q3KUcCMhVb50mhQ+/OVnoAxmFt8szyVBhdxserRKPx0vO43qxTLuOCdX0BhUCYDcQ7VlYlqaquogE9Wc2oZrAhdH9LXEJjS35jiLJW23OtOQ+IweP5lnJUAiJzQnYYqvLrbOhMnjuKXQgBGOxH4/P6yRkAUX4ngGF3PyAkHGH96+hdQMd14rSUc50HYx6EHfp5yp4FLGG3yBpKWBjEnJhzQMWcUYBNbIn5YHRzT1WvNa/GSqECZcZqDUrDRBaADGGdfvvXcyR0AZqUvPyKLjk9pUyRXaES88qgjUWhd5H7u/uaBN6pUxPg0y+8ax56G1tbfYdM7tWnPgBAJ2Iy6FkuWXUO2o5IT92CRZO/QD7o1kFPvyxBjGdyAJQok0n/zyPXOV5Ab9cquX7rKMdBfk5+T4JzO+jpitm3PYBBAVzony4J+itbvlYLgEBJiVs5772fIkLrUN6MMuVQXVgo1qmJlFlTNjilDGA0CR/lLGkEXdsUNhDSyINtuiyUzUo5SQziIfZrAIJxquQY9JClLuPoek1u6hIQuLf09uuo+zoPAbCD4IWP0ivI41CbAAJDSJllAlyWvpWKoPRQ5J/kN+OtIYXDk8VQMX7ul9FfJjt5PwaREZPtjHqvGtzqewIcaEahJcwEo8UbZwyxYHlsa91cG68qCcqKvFaNnHkho+aMEqtmSZM5LAYvhhz3k3dhBHHXtoRKY84qIEDX8eI8OeDDu7Qxct4RuyPpjefDm6rz/IB4WdtAGqYB+GaoMSWACDAjnNEUz7VW+rA/ACsAa9DDjxgzTgJnoi3c13WvrK7X5R4r5TcPDrJm8kSGafYPhwfTqW/hBXurH+NZd3ZB9bn2OI/fnqDvORWYHoxTG8OYfZV6QX+cNwAhW4YoyZr9Y38p1R22CQcL4zk4DEgGOIEkuUvDlNPmB9CwisMkEw/7Hv3uu9sBgkWiFCiyuoWyoBYaSqWoKIS6sifUUR592Q95oW/FqB2i1FRyiOaRfMLT7YcwKTvKWXJbF/YgFwALQjFJsGsCCLxlAMGmW9WtX1JTXyEaGVleMlh3jbly0Il5L2uG6wBCabgZQuvFu2UkUYWlx1dVemSF9+FagNG1NilUb70zQzhZg5IdyWoI4LPuU8R19CqAIEaPDQJsARBhjzZa1HxkWSMmo65ZA+/AcOsTaDFecglcmEdndTQxUZL+vEuGMJrkKGOrQAmvUGItWtafrl42QCakIenN6Xj9mEBxW1Q/8AaI+L897d+Ac1u5Z3qCAEwauUE8TZ6azHvGsUvS8Kref+P5vPKbBEm/51dNySx9WgX9bc83/+QXmLbXAEqA1b5qytvKsuQ6Y88wSniVj8NocwyE+sqE9S4godyneWR5XbI5GbCPgE3PIOfDeOzGJMcGe8KZ5OxyVIEbDBWGcdB+sYscD2zaIGXgbes2zO/vdoCAOSAcvL66eBC07xpI0mTXIX6LjebhbUu6qWuEmfcuNNE26VliRbHWUWb6t0FQ0ZDjoI0H5U+/vAXzcXcChPJbB13frSnZh1dv81D+5RqnV1EyCPlvxg0wZBh5JXVladVnMqY2Fmqd14wFAN76UagZXyUbZEzoApDoZ9hKQMLj5aEzdA47YRTzxLW2OSM32Ccy3eTdGx+jK5lW1j3PGsthToCGNmpYyTCmY5CvigIvnsc7zG9YoPK7JIoxAOQayJA82sZckDNVKFmOBpj7FkNX1gw4yKxy7zjIYTNYQh4feflnbvZYWUVgHc258BEDBkA2JRBW5waY44zJYQEGOG0AJEbHnmg6ejiZvmQks2/jE3YlZ/m5d+Mku0Ky1pZz0CVMoc/cp8CGsGY/lshzPYMcCGtxDoYpf3XCqvvc7x0BXZVLeZYKPdHERNfJH5CB+QBy2pKhV6b83q0AgQFQ+20i6rwuCl9MBk0kQ7qfJ4M+Fn4Qs60z6Ay+BEaKnDfZpuxQ0mLZFFXdF7ewHrxhOQ/DxLDQ2VAtZZjx+HKR726AQMgTJAwqfNXkRcofe2CjVg2a56TySu9ABjPvDihANWIAmhKJsizV9xwk0zEYwAX6up+8JAihcChLxsw9ktaaZMM4PI8BZahtfLJlvbBgXZr3tPkpVPPSJUkKSwFMuhedyXB3uc++sH8o364NIEfzkm00r70JNPUD8NV+yQ3Pj5KUp9EGYtxvHVRBMD6eiSXxPAxJW/M872l/20uSlLs0cud4XwmvXcs9u/S7ul1TAoQExJg5+pJzY31yH7aNHftpn2Di7M0yVIftYmyB1yZjaN6rAEFoClVvDwm3pYE3LuPENNkr9nMJEvoxCu5noFXecAqbmj68l5BDfv9nUJAAxEtW5GRkM052BEPhECn5bPZDVzYh83rM6yCfG2hbw0F/f7cBBIshuUoiVzURjwFFwYtZU8Zthx5R1uK5hLOKtiBdyk48B4DoolhNIsWBJq0Le1DunlctsRtk8nlLBIoxrG6ouxsgeI/q51IHebfc4NZYsk1+/KTaRxmXBLqsI49BKZIYXiZEVu9zrXXFskD/1pWyR1P7wFeXczBsQIYF0GME2zx5wECIyprxTCR32eyUonMw/Kwf21SOn2wDS55n3G1Nzg2AjPYX32esZXl3MbzAjxCYMq82UGwc5lTf5iNLDc218J5KCcqWlyfpsak/665iBwhGYXd5tnCN/YYBBBJ5qeabwUc58wKbQh3WxzxhFQDvPBSnaX7Fz4ERJa7/rK0u9q+U3OE83jv1YQkSyjBfzgsgzOBi5LAEVYfOQVnms+3o4fI5/o2pyqqdsqokwyGuIUv0QZ5S25QblQ6KihosW/nthaY1ziOfhRqdEdLvy6/9+sA2C3nVyag9T6/pm77BhHNg2vaF/WjOsSf0S1fbNZ6yfLcABAtMuTOyaOeMDfu52CcFSgnJEm/LUiZAzt7WULblpPNioFPKxe/agEY5sYCJ2Fo1ZEFhU7pix2M5uAW6lD1eniiYzzdu7InNOO45CPPnR1xyScSCBRF77x0xaVKtPHX1Kqo3p3fub6dLWs9+oRTPoNgZajFMhgGgwBalgkig4m9xSd40IMELB/p4jTyZ3JjCBMBdW0PzC0vJcq6rFEk5skkzKdAzjK/MUjZ+eRJaHqjU9GyxSbFWXkFTrN378ky8i5CYMkbvDzhjrbp8a8L1Rx99dC+/py1hSmgBm0fm6+LI+REoyko4hTJvSvDjlQFrlHuXOD+A4NlZFUI2ABxVC+YfOwQcmft+Hh4ww9iQDWth3pqAlGe4DiAaj+Oc22Tu7vh9FSAwhAwZ2XBCYRrUlPeqY+D/vHGADYAjd3VG0D4gm76DQmc1Gb98BtCL+VOeW72nDB/ag/Yd9kz/WoYrMjxSnshKDiRDy0calNoXegIuyK6QVVebwdGTx9AvPGYdOBNsm1AhQNEmn97TPfSLxF+sahuoGG8Zu1sAAuVMMFQJZHyT4PKqIVsZ4H7XZXEIDy9SQl95jjdDri9Gh3c56BG2kJtEMMi1RG6Mkw0DcIxVqegHhWbxy6RJ4AHapAjHHSCcd16EcwIuvzzi/PMjttyyr0wNwyIkjWmNzSEas18YBrL2ESS0dho9YDFBhk2fCW0Sd/TJk+F5V/NRUtHJureh+tGPfg6YosEpAN5ptQzQ8/NTx8JgFBlvGJCoK3sVRsEi5CmMTZuUx0pBo0z7NeuPPeORedfSC0LBA8SMM2+/6WhWQJNCIkN1obJ8vr3nOntFjk4/T8V6AXJoU2wJg9EU+iPf2Bzv2nTmAIWOuqZcq2DNeoltY+0ABXsScGYo6kIDDBUlj32ggM1f0xwBIPoHLP8ZWxXok2t0upyWZEeT8StDb+ZCMqN8EvKKNWjL8RCWtSaAexV4lHNrTFhSNoCOr/sqqLEkSHCvPCEygh1KfVKtrspnSBQkL7z1Ljakuu4cFoxZHt/eJQQltMmpA/6bGrtEt7uezveHzPcz/HSw+XeuCkA37LdUhpXtVQ4QTBDP2YRAoxgCAkMQTRrFT6G1ZYLnC+eHeqC3VEL6Y3h4EpToIKfSZb9ABwNVnrNtwxBqXhTqdKyUD2VmLvztZMEUZopYggtjlFnGwy7wXe4799yIJz0p4tJLI2bNith6675dD8siWGPKQqxcHLmOTmN4JXraAAwgdJyeCdlgtCS82RgUAXnIkrg6I52MA+/XnLqnrvFKAQieKPbBnCeoyZAG2pPseI+sAmgyMp6FqQI0yHST1yoPBmsGGNe1LHEFYoyPYa96bFgUAIdhRcH385IYAyDZHgO4+zXJjPYfMNdWMmiusAnuMZdAMlDWj00AgM2nsFG/vgET+41XVZ4JUR1vJiUCZPae/ugKBqNUsNbDNQCWvUSx9qs0Mpc8UyBmrIB/3PboOHZU3cMcKuyVnI0yHJv7J71zQBzoNefyDbp82ZbzBMACysmO5ZkJVYBg7wN8QsxNMlfmNKmQEcoA5prYK2FA+5vu7FqBU51yoJFMYtbYlrrKpvIeOtwZPliULnkG5C6/NWL/cm772ak8vM0+Bqa62sbxEKO7AATekqQKSSMro1FqEBqFm8iMEBMWkwz1d5ngHBsvyVjFTNNw6E92OaHn6QxDy1B+jJcxppBRuAQUXTuWs7fLeTV270Cg07B4LqVp3IOUUNatFxaiTJ6JFoDA41ODn4qinyfeJBvWGAAw9qS2q2vg/XgFvBIbpHxOGmr0mvkxNxRU29G4lJHjk7E+/cbNAJNxYLJq9NODSqaCt9rVaBgnZWqTN43T+FCq/WQce8C4mbemZETvwfAKgfVTlgyleQa2mnIsPI/sdU1+tPbW2B7zzjzRfqDIdRgi+7ofyPLOxinHou1cAusKqJMvAI4H1i/fQDjHs4UC+4Eoc0P30B+DJqeVewBQ40wMa5D0VZelX4bs0qt2LZ3By21rScHndXQYwwTIVvdk9k//yFOg64R92kBj9m0PWBdgv1zHqiNlzhlfe7966mL1fcp3Bm6AEPc16UXOIXnrAmqa5s8cY/wYZI5rm2EWUu3KfKd+ZQsxcmTYM/rtEfaIA43xHIuc5vt6nrG2sSN3AQg8Nsl+PPO1bc2fAUBGvHF5awEIvAUsydq2dgbWzkD3GZDPIgu/DcSu0OPxx0d85SuxbPfdY+m//VtfUJsgIe9lcBnvYY5hBxiAhKbcrrwG2GlLSC3fB8Dh5LmniV3VP68YiBjEecucJfc0zbP38/uxgLV8L+8D0OSR600S4bmc1EGZZc/AdFmTpjED0kDKoP3XjVkJOMex7aTeRoAg3jiejceINs6EKwlYnOjkOgAAIABJREFUakeb4qNNz89YPS8CU5DntataGOtnM6HHjCuj4ng4kDc6te0gl0HnjODzBsRgxVZ5XcpbCII47yAtk5LEsCXp2ISDAgRUnkNk0H9a1/pj76EkyXHD7i83P8Apk5fnQihTyPNb8DaIhMEypl3Sk5mU1G8u/N71Diyx/tVxK6ODvDMTOj0T6F32u0RKCH4sSsUYsG9CCHV5F2hd9G51gwPl7mNkBpUtz8S0CCUAd1XPyrzbd0I9pZfvPnvR7+XoDGTYahZBf5Iq5TKYR3Hosk+sjTAGGa9We/DSKEne6liUH1kSXsIakF1hnOxP/zxL75slevka9IicBSzDIF95zE9eC1kNChB6IbCPfSxG3/e+WHa/+8WSn/yk0zZPsGA+KXkGg6fcdCR8yaahtumEfiddYl30V12Hrkyi+/VdB0CMnYxgs5JBq+u3BER1AAK4oC/slSoTh9Gyh8fDy64uiMRbNqb6MbG8DpCga9u88raFZmvIpOdU9ZFnCD92qZiqe455EyLEFgqLlkfF113fCBC6CkXbC/u9F5ZNLQZrY1HYlJbYyyAhhfJZKC2lV+KHxqqcTtx2vI6oNFalmBJD5ASg3ZxutTIautZR0xJxbM787oB4XpeWVGLG3t0v9sooDAMQGDNZ7Wlo+8X0q+sB6GCgMsZOYTiDX2KduZT4gypEmTEmjJtkIrR7Valk8pRnJEBokknKRBwQEMl7MudFYpBMebIGgPHAxAttGOMa5jyLunUBzMwB8FsaSKCJEfGnNEyMFqMGOAxLiVIaEqQ8W7Y35ZEKnlwxzKpuyndEBctMBw6GBeh170+5qQqwxxlpSi7zjMiAdQcEy6oKiYIa8D3WlsnO3g0oyAOb0OR+hx0TUjEGISTzRKbsF0bXmLuUkKZOA0gBzK4Aodynox//eIy+//2x7KCDYslPf9rp1VP+jdU6U/AUvcTuulbdN8CrCq0y5JLJiNbBwVF1cljNZeg3WHoSCLAPS5BhLSRH+pnqtDT8ZZVF/syzypyI6rPIlvnmGEoeTvvh53JzhC1Q8ePdjNWhSOyAZF77qTTg9Kx9L99mLB9b8pzUVxwt9sx65bOsn/kxj4MCe86C8xiAndUGIFhwpSNeRrKHOKwEErHisXhslB+hc2ANY0PpUDJtsaKugpMAAVL1JTmGbKyf9Wx6NqHnCdjEFD7BbwMIVWCQ/ZcAAZBavlnLEINKhm23XWFI+QXAEiC4oMuHlWxOCJ7g5geWJCNRuBSGDSTmJgHQ7yXcZOlOneEvAUIbUEmvw/qLb/o/hWEeecpqvs0tQOL5jATlgqEZFqD2W0uAg0EulRQjAgQpEfSu+UlvBrXpo05dZdX6KPEDRBzKkgeCeY45MM/55VNgnSJjYMbDKFfHSMEBKwCYPc6IOXHPz4E0oCG/e+9nTpWkB7p8Xr3rfGSiIkDgfSVA8poYD2MDzKyP8fGoySXGkMPS9DXZ8vn6HQQgVI3sMADB88k2gIBt6wIQ8ohjwBgwyrJc49GP9+ZVcrTaPsrVxiba487dkPiZ+8rzgVRMEeNJT5fJh9U+6xIbq+suT4gzxQlKgMseAChsy7Aedpt8eRcJuuTHHpcPkY5Nlq4DB13OOGl7FufKWkkYdaS1cmE5UfY6uaNLBjnbx/NWS4CAxnX4hJdE3VPMFnWQ+FPdZJo83qhwAuqM0hm0nLFpkZSsUN4QMQoSSFiZLVkWLIWNSxj7AYQEBvl3dVwlQOC15aYbueyyCCfUXXxxxNln33kWQtH6AQTPIZjpcVWfZ46cD8ET5rVLJkLn2kBpEAk86o8cUG5lUmndvFYBQglU+q0DGeCp8ligcCEPShEtSUExmIwEVN52NsCwa40ClOxJXjwD9a1OWuiDAqbIGHNeAWPeNRGybTwUrbCgZCYJSBIYgSQgjQedzBpQnaczDuqBtI2h/D3P1LOTDgeQgEVygmUiB2SegTIH416x84/BWA8KnfxhA1Hc1gWQpMyxjpJWsQ7mydx1mZdBAELpKaeHPAxAoDPtC4DGmLsAhDTAPF/hQ3vUz4RilNBhDLLUsIvDVnf4UrnucjGscX5kiVFSzULWJQ9meC/fJXVYmZDYRc6AAesK2HgWplK4TsJoU8ilS99N19DLOXfALnvGiTQv7IQxAELj0ZIRo8usOwcbsAWQsPAA/iC5KKsdQLApeVSAAbTD4A1LpVYn3EcyZFCjSxx40pYRO+iCQahoSIfNQMQrkz3IsWFX1PAq3+JlVwFCCQiS9q8mMemrChDS8xi98cYYefCDIy64IOK3v42o5Dj0Awju7/f1ReMQw6dkbBRKx88It43LQ6OIgYXym+mpKPutSx3N2ER1MkjAlaOC1cIzlBgC52uYy/xSoU09VnDaJEveXZmnDa1+nPeE0vfv/BIh480DGO9YqWeTIQCE4aNMhDCMRf4H4MarFj4ar0qctrkAHo2Jl4rFIAPWCE3LUJNVuTdtdfaD7t/yevMCKFPswkv0EjBAnni9ciP831gweF3qzbsChH4GtQQIi4schCrVXr7HWABCnpAJiDFkmBT7Q+5Hsq5dAEKGLYyrjvkDDugv+RxZVkyPYnFK4JXvMuxepI+EE3nYbIy1M56VwYpVZc9zGGkABdgGisgPEMaYY0zHc29zcKyXs0WwtHQH8O/MB2HCriHS1Q4goDLR/1Ae+m6syYO5UIwPepAXgvoftpyxSelQsjwg3o38hmEFeRDFxvsGTHjf3s85DmXrEovvBxB6IOGGG2LCQx86FEBwf4YayjGhiAmq5ByGmccMTBk/ahlws1kGnb9+ccjyAKdUUK6l+CX7iTvzlMgaWpWXxfgABuMdTui3tgABhC8hl/zb0MrpbFC0aB5ZPIhsdL3WnAg1ACmASOZdANNizEJyqwLsluNlTIV3eHkYBUYJEOZpCfk4C2Nl0cJVoEDBAi3GQ16xkJgdybNCT4CUuWqT1y4AoekLhv0YhNLoJvjPsSSrhhUZlEGwL+wPING7e09x/DTaTXH/nMNkIxLc1wEE4MM6cxqAU+CcHuMopFMDiIwlITXHw3Bi5uRgcBCwP01naXTdQ12vI0velQ70lV6AF1uCLet31knXvutACWCbyf6cbmtHx5bn6DT1v1oAhKULFsTc886Lk3/xizjupJPidW99axx4yCHjopyXLVkS8y65JH5+4onxhv/8zzj+i1+MfR/xiNbNPOiiLL711jjtu9+NV77vffGDz38+tn/IQ2J0ypRBuxn4ehuOsZUDwJtHj9cJSlsssI5BSIAw+tCHxsgQDIL7Pbf8OpwDReQcULJADYPEKFK2NgvjlEqkTpm0TVAZq8xrM9xRVeAAgk2KMcBYoLGFHKDrlUk51r0DYAJcWkuKEfK3kR3ywnNvMz5t89Ll9/mxJoaM505x847H/XTOLoP5h7dJoVNS+d0EXheWgwHpWm/f8XGNl5Eha0TBmxf5Eoym0CcDg4Zv86bbAEIT22VwCRDioINi8T+SFEv6vZR3+670uKsAgWzVyVTpUDAiWUFEDjk+5T1tAKHryarmhe4CRAEEodr0psfKGtQt6qVXOXDphbH77rvFBz70gdhonc1idGR0PMSkUx+cJg4BmZFH4//2vJDKymhkgdxi5citw6nk+GFs2vTK3QYQli5cGLNPOy2u/PCHY/bvfheL58yJiyJiakTca9KkWHevvWKrI46ITQ89NEYnT5Zp03nugIK5558ff//Up+Km738/Fl53XVyjnjcidpgwIaZss01s9rznxRYvelFMcXTw/5a7Ddx8WfD22+OmH/0orvrYx+KOc86JuQsWhNMg9oiICeuuG+s/+MG9d5j5oAeNL1hYujTM3y2/+EVc81//FbeceWacccMNMfl/qxkO2mqrWOfe946tX/e6mLHPPsvnrl9yYr53F4Cw9LTTYuT+919BqJpCDPpesnRpzJu/MG64+Y449+Lr4pgvfzpO/P++Efd/wMPive96S+y/374xYXSkp1xLD6EtbtlvveoAQm8c//gq3OIlxrM4Lrzy5jj1t3+K977xBfGghz8+3vT6I+Lggw6IiRNGY3S0u6wNLDc1NyxZsjSM64ILLoz3vOfdvdyH1x15ZLys97W6qb35WdltWY/tWRKzZl3VU1ynnHxyvPilL+2dMb/OjBkxaeJoqzJZGWNctixi8ZIlsXDh4njPBz8eX/jsx+NBD39CHH7kW2O/3baKmetMjYkTR2N0AP0w1nHaS7fNnhMn/vik+NCHPhizrrw8PnL0d2OfPXaIPXfYNNaZMbknR1Xl2wQQSsPcL5RWMgjLTjppII+6BAiYKuyL5/zfNwmWxZKlS2LB4nlxzW2Xx2///Ot4w4veG89+2VPjLa95V6wzdWZMGJkQIxVDWsewVZ2CZDWq77VkmS81LollsSye+q//r/e3UNLmm20RE0YnxMSJzR/56rqOS5ctjVvmXhenXvL9+MtVv47b5t0Uc26cF4vmL4kNt143Npi+Sey71SHx8F2eETOmzFxlYEGo4YMf/ECcd/75vWqipz3tqTGp985D2KOWyVi8dFHcNu/GOOUv34vPf+aLccdNi+OwNzwqtt50+9h36wfGthvsFhNHJ97l2ascIDDe8y+9NK54//vj+m98I5b9b4ZlvzYycWLPuG4HUR54YIxOBR+a26KbborrjzkmrjzqqFh4zTWNF0/bddfY4YMfjA0f+9gYnT69revlv1+2aFHMOfPMuPTII2P26afHsj7H9LphghMgn//8HlCYtuOOw4GRYmRL7rhjObC67dRTw3zWtZHR0djg0Y+Obd/73lhHfffUqcu/457KqFRgXQDCkt/8pldiVRrhpiTFa2+8PU7902VxwinnxRXXzollMTEW3nFjjIxOiNHJM2KjmVPjIQdsE09+6K6x3ZYbxPRpU5Yr1TJu6f26sgn9QgJ3zFsY5158bfzwVxfEaWf9PebMXRIjMRLzZl8dU9fbMiZPXBa7b79RPPURe8SBe28dG87sLg+dBady4fwFi+PaG+fET35zQfz6z7Piqutnx3WXnxMxErHldnvGtltuGI8+eId44L23j802WicmT5ow7KMa77tl9ry44upb4rs/Py/OvOC6uOqqWXHrdZfEzM127uVh7LLthr152W37TWLD9aevMmNszS664qb41knnxOlnW7NFsWzR/Fi2dElMnDozJk1YGjtts34853H7xP67bxkbbTDD1K3Udtvt8+PM86/pjemvF90Qd8xfHAvnXB/T1t8qli1bGtOnjMYBu28e//Lw3WP/3baIGdOnLB9TE0DoAohHP/e5GH3b2yKUKP7pTwO9p/i3RF+hEAABg5Bt2cjS+PutF8dvL/tJnHvtH+L2BbfF4gWL49br5sXG26wTE0cnxzYb7BIHbvuo2HXTA2KdyestNyTlfusazly0ZEFcO+fKOOea38Z51/4hbrjj6rjsrGti4pSJseOeW8dWM3eI/e714Nhlk/1iwxmbj8lgz190R/x51v/Ezy/8Vtx0x7WNc7bOlPXjCXu9IPbd6gExbdI6A83vYBcvi9vm3xxz5t8af7viz/G5z34uYulIPOXZj41dt9077rX+zrHOlJmx7pQNxgzKAYNrZ18RJ1/wzTjv2jNi4WJucsTCeYtj0lSAIGLC6MTYev2d4kE7PTn22PzAmDrJPrpzJ61agLB0adx+1llx2dveFrf8/OfB0La20dFYZ599Yrv3vjc2eMxj7vSI+7TFt9zSAx5Xf/azsdRXCDs0nv5273tfbPmyl8XotGmtdwA0N/34x3Hxq14VC666qvX63gWjo7Hxk54U23/kIzF911273VNz1RLHRH/jGzHrox+NeV1OrhwZiem77x7bvvvdsdETnhAT/gGC6uKcgwCEpDV5/HUAAWtw5nnXxOdOOCP+esnsmDxjo5g0ZZ0YHZ34f0pJlcOiubFo3i2x1Yaj8bRH7hKPuv8uMXPdFdegDI10AQl1DMKtc+bFd045N7598gUxe8HkmDJdKGNqwUoti6VLFsXCebfFyJI58bADtoznP+XePdCystoNt9wRp/z2ojj+pPPj2luXxORpG8TESU49uxME8KwWL5wbC+ffGjtuMS0Oe+ye8aADto91Z4xf2Mp8XjLr5vjGT86Kn/1uViwdnR5Tps6M0Yk+LTva8+iWLlkYi+bPiZElt8fBe28Whz1un9hjx01j0sSVA1Zyvm+85Y74/i/Pi+/84qK4bd7EmDJ9wxid+H8AsjdH1mz+7Fg07+Z40P6bx/OftH/stv2mK40Buvr62XHMiWfGiaddEUtG1onJ02bGhIn0UcKSZbFk8YKeHE2fOC+e+MAd4umP3rsH7rR+AKHNsCaQHznmmBh97WsjNtnEZ/s6i6Y9BCBgDaoAYc6CW+PMv/86fn7h8XH7glsb+5w8YWrss+Uh8YAdnhRbr79j773LA4wyX6Bpn3ren2f9Ik677MS4ee51oH/tM7EV22+8Zzx4p3/pGS1GbNCGDfn1xd+PX1707Zi78PZOt0+aMDketdth8fBdnx6jI+Mv4/MXz43Lb/pbnHbpiXHJDWfH3EW395iMJYuXxpTpE2NkdKRnoHfb7IC433aPjm033D2mTZrRaezVi7z/mVf9On507ldizvybW/uYPnnduN92j+nN+cxpG/WuX6UAYf6VV8blb397XP+tb8WyhQtbB7z8gpGRmHnIIbHTJz8Z6+y3X324YenSHji44gMfaGQl6h46Yb31Yuejj47NauL31etvO+20uOiVr4w7lPwN0kZGYpOnPS12/dKXeqzCoM183fTDH8alb35zL6eicxsZ6YUatj/qqNjAB6Mm3rnR0mNJ2m8QgJDPBhAk0CkfzXMQUMK/O/vK+PQ3/xBX3jQaU6Zv3GMM+jVe18J5s2PGxNnxnMfuFv/6iL1i6pQVPyldJjr16ydpzGqp47wFi+JTx54ePzxtVkyYunFMnHzn1x/7tSWL58f822+IA3aeHq9/3gNXCkgADr7x47Pih7+5MhaOrBeTpvDI6sd05/zcGutPmRfPfNQu8cSH7D4uIME6nXvJdfH5b58RZ106NyZO3SgmTOrP0C1ZvDAWzbspdt5yYrz8qQfEvffYqkejr4x225z58fUf/SW+96vLY8noBj1w2RRiBBQW3HF97LnNlDj8sINir502H/dh/f362fGp406LX515S0xdd9OYOKnJmVjWA3eL5t0Yj7zPZj05Wmf65EaAkKC9Sb5HjzsuRo44ojNAKIGHEAPWoAQI8xbdHqdceHycdukPg6fZpYnV77jxPvH/9n1VbLLOVsvzLtryJ/TteT/+21fjT7N+HguXLOjyuFh/2sbxyN0OjYO3f9zA1Psfrjg5vnfW53rPHaRtMH3TePI+L4k9N79fAAzj1QAwYzr1kh/ELXObv11EH2w0ffN44I5Pivts+4iYMXm9gYaxdNmS+P3lP4sfn/vVAMq6tskTpsT9t39cPGnvF/dA2SoDCGLmqP9LXv/6kNA3aBNu2PrII2Pbd76z1sCi2//29KfHwmubaaR+z133vveN3b7+9UYPf/Ftt8Ulr3tdXH/ssb0cgEHbiIOfxNhe9KJBb435l1wS5z/veQGgDNpGJkyIjZ/2tNjuwx+Oqdtsszx2WdL4MmnzJEWlRtlUMWSSYoYYlv9uZGT5QSoJEC6ddXP8xzGnx9mXL4lJ0zfstqklgC2YHeuM3hLveukD46B9trnLK5ZjrfNQlntZ/6j7zg6+/sM/x2dPOCumrnevmNCo1P/vkUuXLo65t10dD95n/Xj3Kx4R06auCFgGnf/y+rnzF8V3Tzknvv6TC2PhyIYxcTJD00yMe99FC+bEzEmz4/Bn3jseet8de3H3sbSrrrstjj7+93H6uXN6wGl0QruHhtpfOPem2P1eE+JtL35QbLvF+mMZQu298jF+etqF8Ylv/DkWTtg4Jk2a3in/yJotnndDPHTfDeIVzzhoudc+HgNcsGhx/MfXfhM/Ov3qmLLOljE6oZs8YBPmz74qDnv0TvHqQw/uCxC6JPP1gO9xx0UcfngrQMh8o/zbHNQBhFMv/UGcdP6xAxtQe22PzQ+K5x34tpg88U5Gq40FkQfw4799JU699PuxZGn/sHLdeqHaDz3gdbHHFgd1Xs4582+JT/zqdXHj7c1h5roOvd82G+waT9nnZbH9RjLKxt7mL5obp192Yvzyou+EsXVtM6du1GMzDtru0TFlYjvDnf1eeuM58Z2zjo6rb720xwQO0jznafsfHvfZ5uGrDiAsvPrquOAlL4mbf/zjQca6wrUSCvf79a9jqlh+pV3wohfFdV/72sDsQXYzcebM2PZd7+qBkH7t5p/9LC55zWtiroz+IdsM9dtnnNEpnJGPkGdwwQte0Jqz0TQkLMkuDnZ53ON6LEImBObGHitAUJb6rne/N4754Z/j6z+7PEanbtJZkaaCmTfn2th3u0nx6bc9sTYBK8eaGdrL54c7/I8T48oQw6VX3RyvPepHMWfZFjFx8mA5BQzOsjuuiCOfc2A84UG7Dbnad73tvEuvj3cd/au4/o4ZMXkar6Bb1Ny7L7jjpthli2XxwcMfHptvvO7QY1q4aHF87+fnxue/d17ElE1jwj+UfJcOzcuC2VfHsx69Q7zoX+8z7nkRt89dGC989/fimtnTY+oMIZ5u82PsSxbNj9FF18cbn3NAPOrgncccv835+J8zLo1//9rvY+7IZgPNlfsXL5wXS+ZcEl9477/GvTadUXuSYlNpY8p17+CyY49tBAhNRlqFShlimLHpxPj2mZ+MWbdcOLABMSahsEPv/fq477YP701TWxL0xTeeHV8/4yNxx8LbuojZXa7ZYaM94wX3e2esO7Vb2O+U878ZPzr3y0M9y00TRyfFo3d/Vjx0l6f2/j2WxkCL/5/wl0//I6wyWG/rT9sknnvQW3tgJXMDmnqQZ3DiuV+O0y79USweEIxlvxvN2Dze+IjPxsXnX7pqjlq+46yz4s/3u1/n3IB+E7Drl7/cS/or24JZs+KcJz0pbj/zzMFmvrx6ZCQ2fvKTY7djj10eq692puLiive9b0zvIOdhrx/+sFfh0LUJL5w6fXrfhMSu/Wx5xBGxzXve06uwqJYPOcNBPoGT6xxQs5zyXrAgJiiH+dvfYun3vhdLK996UFbps6Vvectb4kUvPzI+9vXfxV9nRUyZNrh3yfjcdt358ZX3PSn22nmLvq9VPVuhXynU57/1+/jGyZfHpHW37jpFK1y3cO7Nsc82S+Pf3/CEmDJ57PHIBQsXx7Ennhlf+MFFMWP9rbuxK8WIli1bEnNuuiw+8IqD4xH3qy9T6/Ki6PIPf+nUOPsKcc8Nu9yywjVyEiYvvT5O+NgzYr1xzInwkFN+d3G87dOnxnqbDGfg5825IR6x/3px+GH3i43WHwwU1k2E6pIPf+GXcfJfZsfk6ZsMBTruuOXKePIDtozDD71vLUCoOyukHMvysNkxx/QFCFk50O/k0ipAuHrknDj5guNi3qI7Bl7/vGG7DXeL1z70E8vvz7BlWbXgl/5/7B+PirOu/k1gEoZpMyavG0/Y64U9+rtLO+qUl/WqMcbSJCs+eZ+XxobTNxtLNz2K/8Rz/jt+d/nPhu7noO0eFU/d79UxaUJ7DtKVt1wY3z3z6Lj85vOGfp4bn3vgW2PybRuvAoCwbFnccMIJvRDAWJvyvR0//vEVurnllFPiwpe+NOY7FngMbeYDHhAAyLQiwze7U9Io/n/10UeP4QnRqybYwQdOXvOazv1IuDy1QwJlW4cqQnb95jdjkiSnf2zcPFIZg6C2HEBw3n9J40/Yf/8YOeecWHr88bG08oGcEiA8/qkvifd/6Q+xYHTjgT2tHPucm6+MZz586zjiWYf0LeMqmQTjr6s/X7R4abz2Iz+Ic/8+OSZNm9k2NbW/l6C38ZQb4r2veGgvg3+sTbXAWz5xSpz395FeouQwbe7s6+Jh+60X73nlw2LCMOW5//uRo7MvvCYO/+jPY8L0rf6RZDfYSHplfjdcFEcd8aB42IF3ZfMG623Fq9/+yZPif/56e0xfdzilvGjB7bHp9Nvjw0c8JHa8152JVmNpl199S3zoi7+Oi66fFhMnD5csJh9h4ynXx+fe8YQ46sMfvMvHmsYDILSFKUqA8KWvfCHOmffzOOPKk8cyNbHe1A3jFQ/8cGyx3na9fvolFN94x9/jK3/4YC+bftgmafbeWz84nnXfN7VWNcxdOCfeeeIzBw5lVMemcuPp935NL8N/LA1L81+nv2ug0EL1eRJE3/boLwY2oa1JTBReGCSUUdfngds+MvaZ+phVABAcW/qVr4QwwFjbJk99auzx7W+v0I2zDi46/PDAJIylrfu/Xzrb5fOf750jUG1yGy55wxt6+QdjaQ5Pkkexzdvf3rkb5Zq/dV7DGNv03XaLPU86KSZvsaJ3zsBKUkyAUOYgeGQXgPDmN785HvjY58b7//svMX0I7zhfbf4dN8VeWy2OT7/9ya0HzzRNx9U3zI43f/xn8fc7NhoarGA01hm5MV536H7xkHEwhNfddHs85x3/XyyauHlLklv/N+O9bzrjtjjuI08bKklwydJl8ZNTL4j3//cfY72NKPbuFH45qjtu/Xs8/WFbxWuffcgYpXLF25965HFxw/wNYvLUwZKyspclSxbF4tuviqPf8ojYa+exJyv+6W9/j48d88e4ds46jUmcTZMAUE1ddFl85IiHxte++MkVAIIqgLYExeVhsxYGocw5qI6nzEH4xOf/Pc6Zd0qcd90ZY1o7We9yA/be8k4ZqB7GltVO5177+/jOmZ9pTcxrG8zOm+wXz77vG2PmtI0bL71uzpXx0VNe3jvXYSxNEuah93l9CG8M2zAmf5n1P/H1M44atovl9z3/oLfFflu3M89yHb5z5tFjBkg7bbJPPGTD560CgLBsWVz71a/24uhjbZs9+9mEIdYrAAAa20lEQVS9ZMKyOaxI2aEqibE0iYq7fuELMWPffe/SzaIbbohL3/jG3nuMpfUAwnveE9u85S136aZfedDCWbPid5WvKA4zhqnbbRd7/+pXMbkCNmxkX/DzqVAMgg8UZclSV4Dw+je8MQ546KHxn8efF+tsgNIfzvAsmHdbbL3urfG1Dz29xyAMe7zqldfcGm/75ClxzdyNYnTITGRJedPipnj5v+4ejx+HPASg5SmvOyHW3WjHTkmBdWu8ZNG8mLT4mjjxU88aKlERZf6dk8+N/zz+3Fhng3sNI0a9e1D5D9l7enzgiEcN3UfdjY95xVdiwYStBs4Zyb6s2eybLo8vvOORse+u/cNUXQftHI9PfPOsuHlBljR2vbO4btmymLzoinj3S+4fJxz7uRUAAuNf7rW63ruEGNJAl99b8bPUKSWD8PHPfjj+Ou+UuOiGMYRkI3pnBfy//V7ZS2Yrn1/dtzL3f3jOl8bs0W630R5x6L1fF5utd9ck5nLerp8zK4QYxgoQNl33XnHoAUeOKVFRdcgvLvh2r3pjrO0xezwnHrP7s1u7cSAUgDDWtsPGe8bDNnrhqgEIEvz++tjHjnXMPe/buQVlm/3738f5z31uzBugNrhuIOs/5CGx21e/2jtpsdrQ/Je99a1x1Sc+YdcN/R4OZNr5U5+KzV/4wuWJPeVGLjvOzb1s7tw4feZwNHnZ33oHHxy7nXDC8hBD+Tvn3CdA8DGaMumoC4Pwpje9Oe7/qGfFh756dg8gDHsa2Py5N8fOm8yP/3r3v/SG1+9kxLYFkKX/lk+cFFffLtwxXKkSBmHGyE1xxNP3jkfcf+e2R7b+/pobZse/vv47MX2D7QdK4Cw7RldPXgIgPHsMAOGc+M/j/zZGgHB9PHy/deO9r3pE63sPcsFTXnNM3Lp4kztLG4doSh7nz54Vn3vrI2PvXcbOIPz+7CvjP477c1w/d72hmahkEN7/ygfFN77ymZUGEExXXaghv+aYByX95+c/GufMPSXOv36ww5aqyzF98jrx9P1fE/tt/aDer1JfVUt2/3jlz+MHf/1izO5Qi9+05JL0GGyGu6lJ0nvXiYeGMwfG0nbYeK942n6vji1mbj90NwDCSecdFyedf9zQfeSNqhmeuFc7C/+7y3/SAwiLlgxeaVcO0lkMD1j/sFUAEBwScv758dfHPCbmXzF8HMrg9/nZz2KDR63otTgg6a+Pf3zM9rXBIZsyyk0PO6zHIIzUHca0bFn8/eij4/J3vjM8b9imWmK/00/vHWBUjdklJVdlEiQpnj5juPhnOc7NX/zi2O6oo0JFQ7VVAUL+3hhHMSodchAe/S8vjPd96Y+xdPKmMWFIrx11/biDNoy3veRhvSHknAw6307hU8Fw0Q0zxmRsNph0fbzjxQ+I/XYbe4jn+v+/vSuBjqpK01+lkpB9ISSBrAoJKIuIgICkVYR2RUaHabUVR1xQ5/SoqA0uw8xBPNra4iCCLdotiCgija2t4FFBB1RCAAVlCUQCBBKSELJU1spWqfG74aZvXmp59VIkMPOuxwNa793lf++++93//v/3Vdbh7v/6BA2IN7xDJglPWl87Viy42dARQ1ubE19tz8e8ZdsR2fc8Q0F3fBZ1VYW467qBePCWS319NB6vf/gPn2LXUQdCI7yftbqqiAAqKsiGl2ZPwuB0z65oPR0/dKwcLyzfiiMVYYafGTkkoiyFeP0/pmLRwhd8PmLokF7/9FOAXlhuUCpdE9+ojIwd91ksIs2RYk3kQXhj+Z8EQNh9YoseE7i9JrJPDO677Bmk9/Wc5fNz2W58sOsVr0yG3jrDBevOS5/UxQnw+rdPIa9sl7cqPf4+Lv0a3DjiHpBh0WhhSidTG9fvW260io77bhg+E78e8luv9ewvyREAoZ2Iyni5IvNmZAZk9QxAaCkvx5G5c1G6wnjqCUmShm/Y0K6foBZKac6fj8IXXwSFn4wUBu5lLF4stB/cldrvv8fPDzyAul3GX7yYq67CMKZ6WvVHxZO9MXfaNNg2Gg8qIgBimmPc9OkgL4K28IhBZjHQg9CpXHQRsHev1yDF2+9+CC+tzEFBRQiCQnxPwyMwqjp5AIsen4yJF6eL4wVvYiLunhW/oX9csRmfba9AcLixnSTP+zMTGrBo7lRBdNPdQpreZ5Ztxs5DTQgJN7Z41VcX48bx8Xji3isMMwZSE+PRl79Ca2CCbm6ITtOtzQFb2SG8/vQ1GDvcWIaIO1uu/uxHvPL+HkT3G6iL/0BbD2NYxmYEYe7dWd1KBZX1krdiwbKvkH2w5XRgqe9HZ421J5E1LAzzZv0KzzzzTJcgRW9pjuyLcNtv2gSQzK2mBvDwnZNpwOrcUbUY3ln1Do607sDm/A9B2mOjJTEyFY9Pfg0k1/FU6Dl4c+s8FNl8IHjTVEjSnnHpV+M3ox7W9U0gO+TbOc8ZHRroHZk6jFkT1xn2hrJxEp3tKc7GipxnDfdF3njvhPkYkTTBaz0nawtFFkN3AdLvLn8RTScDewYgEPVW/rIIMQ6B4kk+l19SZch2OOCee1zu8FnnrjFj9NMfazoQM2kSRmzY4JGfgJoLR598EieWLkWb3e77EKxWEQMQNX68bm2Bjg9Vbi5yp041HIgZM2UKBi5Z4jJDg234AyA88dQ8vPHXHfj4u1MIjUr0eWI1NVQiNtiGvy26A1Y/sPQxwGzuos9hCc+AxQBVa3NNAf71ukzcO90/u+TW1jZ8sjkXf1z1IyJi0zwyTLp6uRyOZjRUFeDVOVMwdkSqwSgPgJ6M/34nG9/lNhjaqTc1VCExoh4rFtyEiDDvaVe+TJRKWwNue3IdmgMSfAaZglGxrgSP3DIMN08ZbsjDou0rQeu6jXvx57/tQ1tIis/PjAtEdeleLJpzPS65IMFlmqM3OnG50BMgWGbM8AoQXNlb9SBQi8Ea24R1Py0FA/qMlhuH34PJQzrLy7ur66+7X8W2o5+DDH9GCsmSpl/8O1yc8ivdt7+y+VFBa2ykXNh/rDheoBZEd0tx9VG8tW1+tzwo4X2i8NTVf0FEsPejZgZGfp77jvBcGD1moFfo0UmLe44oiUYmE2HRwoXiHN9RW6vb7gzsY/bC+c8/7zI+QFZU/uGH+PnBB0FvhS8lJD0dwz76CBGjRnm9jRkFjHegloQvsQiMPUj5/e+RMm+eaMPXnTFjIMpWrsSxefN8Y6K0WNAnOVkcLbjzHugFCM61a+G4uT02QBY1zZG7Iy7Ki1fvQHFNBIJ8iEQnyU1r/Qk8MfNSvwQEsn9tvwSHPf/n/8GG7BMIiyGDpHe2QN7XTkpUjtTYRix5appf8umlvY6eqMTzf/kWecUWBAumSX07Ui40TXVluGxoBObe/atu9YnHDJtyDmHhuz+gJYD00/r5AsgO2FJfjEduuxg3XTXUL4uw+j61tDqw6tPdWLH+ZwSHDxC6EHoK7UNdjxHpFjw2YyIGpvrO76BtR6bTkvr5P1/biD0FbegTQS4EfSyWDJisrz6BS4dEYNETU9H4y6Zi/vz5XTwIemiK2TcChIA77zQEECitrhIlDRw0EOv3v4VtBZ8ZWkToPeACQt0APYWcBG9mz0NVwyk9l3e6huRAwwaMa8/Lp4aKznKsKg8rc57z0dVuQWpsBu4YMwf9o9J1tuT5svrmGnyR+y6+O7LeEEDi+3b5oGmYOvxe3dTPp+pOYO2uV0GCKs4NXwppnR/Meg6psYN7FiCwk0xFLFq0SLAeUnnRW7GGhwv2v7Snn0YEz8K9fFBLly8XEtJCr8BbMOFpIahBCxciZnJ7JK6eUn/gAA7Pno3qLVt0HWkEJyai3623Im3BAnA8RktreTmKlyxB6Ztv6gNBFovIWEh66CH0nzXLZewB+8JFimmObo8YaHdqT6xZA+ctt3RKy9ICBO6S/775AFau34+GNvLoR3p+ZkK0qRFoLse145Pw778dj/BQfYuCHjuW2+rx9OIvsK+gWXDoe2MNZGAiz/n7hdbgqXuvwKUjjEf6u+ofswg2bjuEP63djZqWSASFRHsFCe16DFVIim7GnLsmCOXC7sobV1bb8fbH32PDtlI4g/WlgvIsnXTGWSNiMfuOCUg4LUKk5zn4ck1JeS0Wv5uNbbk1sFIjopMgUtea2sGBDYmRjfi331yCK8YMNHz8otaunufvyz+JF5d/i0JbCPqExnrNQiGHBo87MhKBFx+9Rhx3GBVrkn2ybNoEqwGAwCMMijVptRiq7Kfw0Z7XhaKiL3S8CZEpuHXUIxgUf5Evj1Uw+326bzmosOhLGRCVLtINSX/sS+H5/97ibHxx4D3Q7a7He0HgQ/ZEihb5sxyp2Cfc/icMUB8nxwzC7WMeFyqXvmSH5ZZux4Z9b+NE9RHdQ6FI05QhtyFr4I3iu9RjWgxqD5kySFXCU2vXghkI7iSfSUscd9NNYGqjUEHUsduiQmTFhg04uWoVqM/AtroU7qrT0hA7aRIGzJoFRvf7WhoLClCybJlQdqzfv59JwF2qoNeAnArxt94qAEJgrDFynI4PhMUCR1mZsB2BEIGKq3bl9VETJiBh5kzhOWBwpLviFSBkZQHUgHjjDThnzeoUXKkFCGyDAkkbthzEB1/moawuSKjedVZPbO+JVFAMD2rE5DFJmDH1YvSPjzTsOnc3PlIu8+gjJ7cKCKQ4UkSXIwcuMkI90W7DkJRg3HfzKEwc1U4A4+9S19CE9VsOYvXnB1BlD0FwaIzbrAYhktRYiZS+wN3TRojFr0+wPk+It34zFZSiSBt3lMIZGC1c+i53x9SCoBpeazXGDonGff88GoPTuZP21oKx37mjzi+swDuf/IjsveVooXJiSFQX9z6vE6JIjTacn2jFnTeMwFXjBvlFaVKlLZaBsj/kFmP5xz9gzxE7gkJihOdFK0RGrwHJmtBag5GDInH/v4zuEI/qrtyzChCcjY1egaUqcqZlUpRyz1w4qeS4t2SrV08C1Q1JHsRo+uFJE3TR/qpvgMPpECl/BAo2uz5PwnlxF+L6oXdhcIJ3766rt63V0QwuztuPbUTeyR9Q11TjUkGSgYiZ8SMxNn2KUFL0t5IjXf2Unf7i4LuorNd/xE4uBqY3UkXTV+Eogj6OeUv+x2CgqCcNDIpwMVtj4sCpGJ06qUP3oVcAAh8kI/O5sNbu3CkkoJuOHxe7cQbTccdNBULyElDq2VXUvadPD7UL6Klg3QwstOfntx9pWCwI6tsXoRdcgCjWPXo0ghMSdAEPV+2RXbFu927U7NiBhn37RGwFwQ6DAEMyMsQYwkePRujgwYJB0VNRXc3y7yrxiUon7KivF4GSti1bULN1K+pPt20JCBAeA9osKisLjKsIGToUFIny1rZHD8K11wJffom2hQvRRjU5pbgCCPy5ucWBn/JK8EX2YWTvPYkaO+My+7QHSDrbZXEtzmaMGhyHqyecL4IS42KpQ35mSml5raDx/XJbAQ4X18NpCRaLMu1Kch3u+BJjAnHl6BRcPSEDQwcxhuLM9IW1Msti+55C/H3zQeTsLxcsfRSTslqDhOOL/eHiZ3E24spLBuCfrrxA5PX7CxzIkXG3/lVOPtZtykNJVasAT/Sy8DhGgCYe/TQ3ICHaghuyBuKayzKQNiDWLzt0j3PY6QR5I7Z8fxSfZx9F3vEaWAND24GUxYI2R6t4h+IiA3DlJcm4NitTPDMjCpNynqmcG9psAPnb4aJKbMw+hK93FqLwVCMs1j7tfeIzoyKiowlpiSH49bh0TB5HW8V02MoTQPAmdkRbqQChtb7eYxCvrE/aWAKEMWPGYNWqVcKbIEtdsw17ir8TC1ih7VCXhYQu/piweLFIjUq9AqkxmYbkl8V3wdEERtmTdvhI+V63oIRu7ouSJ4qdvLcsCW+zlO+xzV4hdCeKbIeEN4HiSSzkcqBHhGyJaX2HCPXIM1XoOdlfsh0b89Z4ZZUkUKfHgGDswsSxCKFomcFSVluE3NId4t/jlXmd0j/5/UuMTBOS2sMHjEdqbGYnOudeAwhyrFxQGZvQ1tAABgGKhTAkBNboaDD2oDuFQIGLOP+VXoqA4GChRWANC2NocHeqb7/X6RTAxlFTIzQaODHFAh8WhoDwcLA9dwRIsnG5Q9Gm9Kn38e9a0iACBR7TtNhscNjtgjMgIDQUgTExCIqLE3b0RsEqPjwWC1Sxpi5ZDAYAghybrbYR5P4/dLwChaW1qKhuQGRYHyTGheOC8/ohPSlWnKcHB+nP6jD60BqbW3GyohaHCyuRf7wSJyvq0dzqwIC4CKQnRSMjLQ5J8VEiY0FvbIDRvvA+KhdS+jmvoBw5ewpx4GgFym12saAk9g3DiIwEjB2ehMy0fugbHXbGFmXapfhkDXYdLMauAyU4UmRDdV0zwkIDkT4gGiMHJ2LciBSk9o/26/GPHtuxbwyqpErozwUVOGVrEOAzLiZU9G3IefFIio9EVIT+s+mObw+BqsMhnjXnl8q5IemP1VRBeR8zG4rLapB/vBz5RZUoq6iHNcCKhLgwDErpi8z0OCTGRSK0DwHoP0bpCSC0f0qcXdgIVRtpAYL6/VDHJMej3uvOg8BrOW7utHnkwKBFBtVRjpg7zoiQGCREpCIlZpDQJOCC2t25wXqr7eWgZsChUz+hsOoQapoqBYVyv/BknB93ITLiRyIp6jyEUQrdT9sG7qibW+1obLHD4WwV9RIIhwSGglTG3R2XnveZvAiMD9hdtAU7Cr6Ezd41Xo5u/vHp1wp+ifjI5G6LRbFffL41TVWosVeg0l6G5tYmYe/Y0HhEhcYJ2uyQwLAuNuh1gKDHqOfiNfID42qyaoGBUbZANbhJgosuIMLh0AVQ3AEEwYNw/fU+exAk8OCf7BMD4xg0yD/bvSEWWAMsPTIpte+P6IejvT/8h+f51DVgn3qj8DlSO8LR1gZnm1PskEWfrBaxI+6JD5cELIyRkM9KLB58TtYAQztzf9qy8zMD+KiEDkc3n5nqhlcZAFtaWjoEzdzNTwK8ltbWjneatMnsj7v3SA9AUAGL1n5agKASE6leR1d2dwUQVK+kCjB4Vu9Em/CKtL+LVq/6B0aeNXf2PHZoa2N7UpE1AFa2F2D1GzAw0rczfQ9BUlOrHSU1BQKUNTTXgdTV/SPTkBwzEIEBwYa9NN76TrtLqj+xbngAYCZA8GZNA79rVc3UKjo8DDK32YAXQ3Ufql4GVxNejweB/dOmOaofTusNN8CycSPaXn4ZbdSjV4o8YqAWw4IFCzp2Y7zEKAuiAZObt5gWMGQBbQaBfGclQHA1pzotpqdjj+S8diUcJq/3BhDkdeqcVTcYnQBCXZ1PR6NagDCYx54Gvj2GjGzedM5awAQIZ+DReVJnkx8SIzoDKv2xux2Dtl6jAEEVkKEHwRtAoNwz0xzdeTLOgJnNKk0L+GwBOf8ksNaCbb6/9ASoc9jTXNXOL97rrugFCNr4gQ5PQU4OrNOnA1VVaC0tBVwworprWxVreu+990CA0FOeKZ8fknnDWWMBEyD4+VFIXXZPk0+e++ltWns2KRdhdyIv6s7dKEBQvSB6AcKzzz5rmBpZry3M60wL+GIBySqoBvyq97uKD5I7a1X4yBWrpzbTgf/tD4DA/rkCCZY9e2DlcV9lJRz5+XD6oPAqAQKDFFevXo3MzO5ri/jyHMxrz00L+BUg5OXlnZtW8GOvte5BV1VLt6WeZlVXvx7Erw220kqwumvzm2++wWOPPYbQ0FAwSFEFOu6OGNjWjBkzsG7dOjzwwAOYPXu2niGZ15gW6DELaGmMtXNIPcdXO9UeN9M5dVkFCRJwqPfLueducHa7HUuWLMFbb72FpUuX4v7770eQhwwjtQ3h+VAAQmt+PqABCO7Gwv6oWQwmQOix1++cb8ivAGHcuHHnvEG6OwBXOxJtnXoWenmPnvq81a91q7oao81mw+HDhxETE6MLIEgvxu23344PPvgAycnJSEnxLy9/d5+Feb9pAV/mT6fz/tPpB9oYH61FPS3K2msJOIqKilBSUqILIKjfAAEWfvzxHx4EEsEpAEHbT/nfEtTQg0A1x379+uHyyy9HlA/HE+Zb9P/XAlwXtm7dKtYFAkt6oDwVi1Mz4/bv349p06aBVJ5mOfctEBcX5xEgOB9uF0uRbliyL65Zs+bcH7g5AtMCPWgBPR6ELt356SeAKccVFXAcPgxLcnInyXheL4G79u9Si8HX480eNInZ1FloAXnURd4MQwCB0b6nTp3qFNRzFo6zR7qkjRVw1aieyH71WMFox2U7KuGLq7qkN0Mu+lz46QngWORxSeDMmbC8/z6cc+YAL7zQKbiJxxEMvjKLaYHesoCqXqjGzrA/nAfaQER3c1CNU5BeNzUeQc5LuQj7clSotU1sbCwiInzkFFAAAgoKuhwxeLJ/dXU1li1b1luPyGz3HLcA31c6Avr39yxe1cWDcI6P26/dl4uqp0r1ZC/oARpsQ37EtO2pmQR6giblbkNN0VKBhXXWLFhWrgQefxx46SW/2syszLRAdy0guQM4t+QiLxdzGTSojcVxF0yovU4bnOjtyKG7Y/F4fzcAwhntl1m5aYHTFjABgodXQc/CrtfF52nnL89K1TNTtVv+AAhyLOID+dprwNdfA9OmATNnmpPBtMBZYwE5T+ROn+++NrCXYEA7nzx5EdyxK/b6oE2A0OuPwOyAZwuYAEEHQJAuT1eX6gUIvFe7m5HHAfwYaqOz3QEEPV4Nea92V+XOQ2FOEtMCZ4MF1HdbgmW+w1qg7u64zZMXQWYwuKJa7rWxmwCh10xvNqzPAiZA8GInTyRJ7hZid1WquyM1+EiCB3c8CPxdfhS7AxD0vRLmVaYFescC2ngDvuvyCE/Gz8j/p8YiyGMIoV3ihk1QAnBX/Ae9M1oAJkDoNdObDeuzwP8JgKAGLXHYatCRPjO4v0oCBE/xAXIB99aWpxQqbwRIcnfkapel7ZsMtvIl/dJb383fTQucSQu4AgeyPRlLIxd59ciN/08NanRHjXxWes+OHQMmTgTKyoCdO4GRI8+kic26TQv4bIFzHiCoOwu5u6AV9AQP6rGWnqwBdaejp07tNerRgybrVFyqHmOoAEEFHNIl669xGxmHeY9pAVcWkDt8rddMXqv1isngRP7OuSE9A9pYBOlF6EQjLkS6/KDq2hOPsqUFIBkd/xwyRCjGmsW0wNlkgf8FaTiguki8gKIAAAAASUVORK5CYII=;" vertex="1" parent="1">
                    <mxGeometry x="450" y="53.91999999999999" width="410" height="186.08" as="geometry"/>
                </mxCell>
                <mxCell id="14" value="TESTING, Draw all LOD side by side" style="rounded=1;whiteSpace=wrap;html=1;strokeWidth=2;fillWeight=4;hachureGap=8;hachureAngle=45;fillColor=#1ba1e2;sketch=1;" vertex="1" parent="1">
                    <mxGeometry x="220" y="250" width="290" height="40" as="geometry"/>
                </mxCell>
                <mxCell id="15" value="Parallel Selection LOD" style="rounded=0;whiteSpace=wrap;html=1;" vertex="1" parent="1">
                    <mxGeometry x="220" y="310" width="210" height="40" as="geometry"/>
                </mxCell>
            </root>
        </mxGraphModel>
    </diagram>
</mxfile>